<svg width="1024" height="1024" viewBox="0 0 1024 1024" xmlns="http://www.w3.org/2000/svg" role="img" aria-label="Llamafolio">
<g transform="translate(0,0) scale(1.024)"><g transform="translate(500,500) scale(0.56818) translate(-643.50,-792.00)">
    <g transform="translate(0.000000,1584.000000) scale(0.100000,-0.100000)"
fill="#151E2F" stroke="none">
<path d="M9090 15225 c0 -8 -7 -15 -15 -15 -8 0 -15 -7 -15 -15 0 -8 -7 -15
-15 -15 -8 0 -15 -7 -15 -15 0 -8 -7 -15 -15 -15 -8 0 -15 -7 -15 -15 0 -8 -7
-15 -15 -15 -8 0 -15 -7 -15 -15 0 -8 -7 -15 -15 -15 -8 0 -15 -7 -15 -15 0
-8 -7 -15 -15 -15 -8 0 -15 -7 -15 -15 0 -8 -7 -15 -15 -15 -8 0 -15 -7 -15
-15 0 -8 -7 -15 -15 -15 -8 0 -15 -7 -15 -15 l0 -15 -30 0 -30 0 0 -15 c0 -8
-7 -15 -15 -15 -8 0 -15 -7 -15 -15 0 -8 -7 -15 -15 -15 -8 0 -15 -7 -15 -15
0 -8 -7 -15 -15 -15 -8 0 -15 -7 -15 -15 0 -8 -7 -15 -15 -15 -8 0 -15 -7 -15
-15 0 -8 -7 -15 -15 -15 -8 0 -15 -7 -15 -15 0 -8 -7 -15 -15 -15 -8 0 -15 -7
-15 -15 0 -8 -7 -15 -15 -15 -8 0 -15 -7 -15 -15 0 -8 -7 -15 -15 -15 -8 0
-15 -7 -15 -15 0 -8 -7 -15 -15 -15 -8 0 -15 -7 -15 -15 0 -8 -7 -15 -15 -15
-8 0 -15 -7 -15 -15 0 -8 -7 -15 -15 -15 -8 0 -15 -7 -15 -15 0 -8 -7 -15 -15
-15 -8 0 -15 -7 -15 -15 0 -8 -7 -15 -15 -15 -8 0 -15 -7 -15 -15 0 -8 -7 -15
-15 -15 -8 0 -15 -7 -15 -15 l0 -15 -30 0 -30 0 0 -15 c0 -8 -7 -15 -15 -15
l-15 0 0 -30 0 -30 -15 0 c-8 0 -15 -7 -15 -15 0 -8 -7 -15 -15 -15 l-15 0 0
-720 0 -720 15 0 c8 0 15 7 15 15 0 8 7 15 15 15 8 0 15 7 15 15 0 8 7 15 15
15 8 0 15 7 15 15 0 8 7 15 15 15 8 0 15 7 15 15 0 8 7 15 15 15 8 0 15 7 15
15 0 8 7 15 15 15 8 0 15 7 15 15 0 8 7 15 15 15 8 0 15 7 15 15 0 8 7 15 15
15 8 0 15 7 15 15 0 8 7 15 15 15 8 0 15 7 15 15 0 8 7 15 15 15 8 0 15 7 15
15 0 8 7 15 15 15 8 0 15 7 15 15 0 8 7 15 15 15 8 0 15 7 15 15 0 8 7 15 15
15 8 0 15 7 15 15 0 8 7 15 15 15 8 0 15 7 15 15 0 8 7 15 15 15 l15 0 0 30 0
30 15 0 c8 0 15 7 15 15 0 8 7 15 15 15 8 0 15 7 15 15 0 8 7 15 15 15 8 0 15
7 15 15 0 8 7 15 15 15 8 0 15 7 15 15 0 8 7 15 15 15 8 0 15 7 15 15 0 8 7
15 15 15 8 0 15 7 15 15 0 8 7 15 15 15 8 0 15 7 15 15 0 8 7 15 15 15 8 0 15
7 15 15 0 8 7 15 15 15 8 0 15 7 15 15 0 8 7 15 15 15 8 0 15 7 15 15 0 8 7
15 15 15 8 0 15 7 15 15 0 8 7 15 15 15 8 0 15 7 15 15 0 8 7 15 15 15 8 0 15
7 15 15 0 8 7 15 15 15 8 0 15 7 15 15 0 8 7 15 15 15 l15 0 0 690 0 690 -15
0 c-8 0 -15 -7 -15 -15z"/>
<path d="M10380 15225 c0 -8 -7 -15 -15 -15 -8 0 -15 -7 -15 -15 0 -8 -7 -15
-15 -15 -8 0 -15 -7 -15 -15 0 -8 -7 -15 -15 -15 -8 0 -15 -7 -15 -15 0 -8 -7
-15 -15 -15 -8 0 -15 -7 -15 -15 l0 -15 -30 0 -30 0 0 -15 c0 -8 -7 -15 -15
-15 -8 0 -15 -7 -15 -15 0 -8 -7 -15 -15 -15 -8 0 -15 -7 -15 -15 0 -8 -7 -15
-15 -15 -8 0 -15 -7 -15 -15 0 -8 -7 -15 -15 -15 -8 0 -15 -7 -15 -15 0 -8 -7
-15 -15 -15 -8 0 -15 -7 -15 -15 0 -8 -7 -15 -15 -15 -8 0 -15 -7 -15 -15 0
-8 -7 -15 -15 -15 -8 0 -15 -7 -15 -15 0 -8 -7 -15 -15 -15 -8 0 -15 -7 -15
-15 0 -8 -7 -15 -15 -15 -8 0 -15 -7 -15 -15 0 -8 -7 -15 -15 -15 -8 0 -15 -7
-15 -15 l0 -15 -30 0 -30 0 0 -15 c0 -8 -7 -15 -15 -15 -8 0 -15 -7 -15 -15 0
-8 -7 -15 -15 -15 -8 0 -15 -7 -15 -15 0 -8 -7 -15 -15 -15 -8 0 -15 -7 -15
-15 0 -8 -7 -15 -15 -15 -8 0 -15 -7 -15 -15 0 -8 -7 -15 -15 -15 -8 0 -15 -7
-15 -15 0 -8 -7 -15 -15 -15 -8 0 -15 -7 -15 -15 0 -8 -7 -15 -15 -15 -8 0
-15 -7 -15 -15 0 -8 -7 -15 -15 -15 -8 0 -15 -7 -15 -15 0 -8 -7 -15 -15 -15
-8 0 -15 -7 -15 -15 0 -8 -7 -15 -15 -15 l-15 0 0 -180 0 -180 435 0 435 0 0
570 0 570 -15 0 c-8 0 -15 -7 -15 -15z"/>
<path d="M9510 13695 c0 -8 -7 -15 -15 -15 -8 0 -15 -7 -15 -15 0 -8 -7 -15
-15 -15 -8 0 -15 -7 -15 -15 0 -8 -7 -15 -15 -15 -8 0 -15 -7 -15 -15 0 -8 -7
-15 -15 -15 -8 0 -15 -7 -15 -15 0 -8 -7 -15 -15 -15 -8 0 -15 -7 -15 -15 0
-8 -7 -15 -15 -15 -8 0 -15 -7 -15 -15 0 -8 -7 -15 -15 -15 -8 0 -15 -7 -15
-15 0 -8 -7 -15 -15 -15 -8 0 -15 -7 -15 -15 0 -8 -7 -15 -15 -15 -8 0 -15 -7
-15 -15 0 -8 -7 -15 -15 -15 -8 0 -15 -7 -15 -15 0 -8 -7 -15 -15 -15 -8 0
-15 -7 -15 -15 0 -8 -7 -15 -15 -15 -8 0 -15 -7 -15 -15 0 -8 -7 -15 -15 -15
-8 0 -15 -7 -15 -15 0 -8 -7 -15 -15 -15 -8 0 -15 -7 -15 -15 0 -8 -7 -15 -15
-15 -8 0 -15 -7 -15 -15 0 -8 -7 -15 -15 -15 l-15 0 0 -30 0 -30 -15 0 c-8 0
-15 -7 -15 -15 0 -8 -7 -15 -15 -15 -8 0 -15 -7 -15 -15 0 -8 -7 -15 -15 -15
-8 0 -15 -7 -15 -15 0 -8 -7 -15 -15 -15 -8 0 -15 -7 -15 -15 0 -8 -7 -15 -15
-15 -8 0 -15 -7 -15 -15 0 -8 -7 -15 -15 -15 -8 0 -15 -7 -15 -15 0 -8 -7 -15
-15 -15 -8 0 -15 -7 -15 -15 0 -8 -7 -15 -15 -15 -8 0 -15 -7 -15 -15 0 -8 -7
-15 -15 -15 -8 0 -15 -7 -15 -15 0 -8 -7 -15 -15 -15 -8 0 -15 -7 -15 -15 0
-8 -7 -15 -15 -15 -8 0 -15 -7 -15 -15 0 -8 -7 -15 -15 -15 -8 0 -15 -7 -15
-15 0 -8 -7 -15 -15 -15 -8 0 -15 -7 -15 -15 0 -8 -7 -15 -15 -15 -8 0 -15 -7
-15 -15 0 -8 -7 -15 -15 -15 -8 0 -15 -7 -15 -15 0 -8 -7 -15 -15 -15 -8 0
-15 -7 -15 -15 0 -8 -7 -15 -15 -15 -8 0 -15 -7 -15 -15 0 -8 -7 -15 -15 -15
-8 0 -15 -7 -15 -15 0 -8 -7 -15 -15 -15 -8 0 -15 -7 -15 -15 0 -8 -7 -15 -15
-15 -8 0 -15 -7 -15 -15 0 -8 -7 -15 -15 -15 -8 0 -15 -7 -15 -15 0 -8 -7 -15
-15 -15 l-15 0 0 -30 0 -30 30 0 30 0 0 -15 c0 -8 7 -15 15 -15 8 0 15 -7 15
-15 l0 -15 30 0 30 0 0 -15 c0 -8 7 -15 15 -15 8 0 15 -7 15 -15 l0 -15 30 0
30 0 0 -15 c0 -8 7 -15 15 -15 8 0 15 -7 15 -15 l0 -15 30 0 30 0 0 -15 c0 -8
7 -15 15 -15 8 0 15 -7 15 -15 l0 -15 30 0 30 0 0 -15 c0 -8 7 -15 15 -15 8 0
15 -7 15 -15 l0 -15 30 0 30 0 0 -15 c0 -8 7 -15 15 -15 8 0 15 -7 15 -15 l0
-15 30 0 30 0 0 -15 c0 -8 7 -15 15 -15 8 0 15 -7 15 -15 l0 -15 30 0 30 0 0
-15 c0 -8 7 -15 15 -15 8 0 15 -7 15 -15 l0 -15 30 0 30 0 0 -15 c0 -8 7 -15
15 -15 8 0 15 -7 15 -15 0 -8 7 -15 15 -15 8 0 15 -7 15 -15 l0 -15 30 0 30 0
0 -15 0 -15 30 0 30 0 0 -15 c0 -8 7 -15 15 -15 8 0 15 -7 15 -15 l0 -15 30 0
30 0 0 -15 c0 -8 7 -15 15 -15 8 0 15 -7 15 -15 l0 -15 30 0 30 0 0 -15 c0 -8
7 -15 15 -15 8 0 15 -7 15 -15 l0 -15 30 0 30 0 0 -15 c0 -8 7 -15 15 -15 8 0
15 -7 15 -15 0 -8 7 -15 15 -15 8 0 15 -7 15 -15 l0 -15 30 0 30 0 0 -15 c0
-8 7 -15 15 -15 8 0 15 -7 15 -15 l0 -15 30 0 30 0 0 -15 0 -15 30 0 30 0 0
-15 c0 -8 7 -15 15 -15 8 0 15 -7 15 -15 l0 -15 30 0 30 0 0 -15 c0 -8 7 -15
15 -15 8 0 15 -7 15 -15 0 -8 7 -15 15 -15 8 0 15 -7 15 -15 l0 -15 30 0 30 0
0 -15 c0 -8 7 -15 15 -15 8 0 15 -7 15 -15 l0 -15 30 0 30 0 0 -15 c0 -8 7
-15 15 -15 8 0 15 -7 15 -15 l0 -15 30 0 30 0 0 -15 c0 -8 7 -15 15 -15 8 0
15 -7 15 -15 l0 -15 60 0 60 0 0 15 0 15 30 0 30 0 0 15 0 15 45 0 45 0 0 15
0 15 30 0 30 0 0 15 0 15 30 0 30 0 0 15 0 15 30 0 30 0 0 15 0 15 30 0 30 0
0 15 0 15 30 0 30 0 0 15 0 15 30 0 30 0 0 15 0 15 45 0 45 0 0 15 0 15 30 0
30 0 0 15 0 15 30 0 30 0 0 15 0 15 30 0 30 0 0 15 0 15 30 0 30 0 0 15 0 15
360 0 360 0 0 15 c0 8 7 15 15 15 8 0 15 7 15 15 0 8 7 15 15 15 8 0 15 7 15
15 0 8 7 15 15 15 8 0 15 7 15 15 0 8 7 15 15 15 8 0 15 7 15 15 0 8 7 15 15
15 8 0 15 7 15 15 0 8 7 15 15 15 8 0 15 7 15 15 0 8 7 15 15 15 8 0 15 7 15
15 0 8 7 15 15 15 8 0 15 7 15 15 0 8 7 15 15 15 8 0 15 7 15 15 0 8 7 15 15
15 8 0 15 7 15 15 0 8 7 15 15 15 l15 0 0 405 0 405 -45 0 -45 0 0 15 0 15
-45 0 -45 0 0 15 0 15 -30 0 -30 0 0 15 0 15 -45 0 -45 0 0 15 0 15 -45 0 -45
0 0 15 0 15 -30 0 -30 0 0 15 0 15 -45 0 -45 0 0 15 0 15 -30 0 -30 0 0 15 0
15 -45 0 -45 0 0 15 0 15 -45 0 -45 0 0 15 0 15 -45 0 -45 0 0 15 0 15 -30 0
-30 0 0 15 0 15 -30 0 -30 0 0 15 0 15 -30 0 -30 0 0 15 c0 8 -7 15 -15 15 -8
0 -15 7 -15 15 0 8 -7 15 -15 15 l-15 0 0 30 0 30 -15 0 c-8 0 -15 7 -15 15 0
8 -7 15 -15 15 l-15 0 0 30 0 30 -15 0 c-8 0 -15 7 -15 15 0 8 -7 15 -15 15
l-15 0 0 30 0 30 -15 0 c-8 0 -15 7 -15 15 0 8 -7 15 -15 15 -8 0 -15 7 -15
15 0 8 -7 15 -15 15 l-15 0 0 30 0 30 -15 0 c-8 0 -15 7 -15 15 0 8 -7 15 -15
15 l-15 0 0 30 0 30 -15 0 c-8 0 -15 7 -15 15 0 8 -7 15 -15 15 -8 0 -15 7
-15 15 l0 15 -30 0 -30 0 0 -15 0 -15 -540 0 -540 0 0 15 c0 8 -7 15 -15 15
-8 0 -15 -7 -15 -15 l0 -15 -30 0 -30 0 0 15 0 15 -45 0 -45 0 0 -15z"/>
<path d="M8190 12015 l0 -105 -15 0 -15 0 0 -150 0 -150 -15 0 -15 0 0 -150 0
-150 -15 0 -15 0 0 -150 0 -150 -15 0 -15 0 0 -135 0 -135 -15 0 -15 0 0 -165
0 -165 -15 0 -15 0 0 -135 0 -135 -15 0 -15 0 0 -165 0 -165 -15 0 -15 0 0
-150 0 -150 -15 0 -15 0 0 -150 0 -150 -15 0 -15 0 0 -135 0 -135 -15 0 -15 0
0 -150 0 -150 -15 0 c-8 0 -15 -7 -15 -15 0 -8 7 -15 15 -15 8 0 15 -7 15 -15
0 -8 7 -15 15 -15 8 0 15 -7 15 -15 l0 -15 30 0 30 0 0 -15 c0 -8 7 -15 15
-15 8 0 15 -7 15 -15 l0 -15 30 0 30 0 0 -15 c0 -8 7 -15 15 -15 8 0 15 -7 15
-15 0 -8 7 -15 15 -15 8 0 15 -7 15 -15 l0 -15 30 0 30 0 0 -15 c0 -8 7 -15
15 -15 8 0 15 -7 15 -15 l0 -15 30 0 30 0 0 -15 c0 -8 7 -15 15 -15 8 0 15 -7
15 -15 l0 -15 30 0 30 0 0 -15 c0 -8 7 -15 15 -15 8 0 15 -7 15 -15 l0 -15 30
0 30 0 0 -15 c0 -8 7 -15 15 -15 8 0 15 -7 15 -15 l0 -15 30 0 30 0 0 -15 c0
-8 7 -15 15 -15 8 0 15 -7 15 -15 l0 -15 30 0 30 0 0 -15 c0 -8 7 -15 15 -15
8 0 15 -7 15 -15 l0 -15 30 0 30 0 0 -15 c0 -8 7 -15 15 -15 8 0 15 -7 15 -15
l0 -15 30 0 30 0 0 -15 c0 -8 7 -15 15 -15 8 0 15 -7 15 -15 l0 -15 30 0 30 0
0 -15 c0 -8 7 -15 15 -15 8 0 15 -7 15 -15 l0 -15 30 0 30 0 0 -15 c0 -8 7
-15 15 -15 8 0 15 -7 15 -15 0 -8 7 -15 15 -15 8 0 15 -7 15 -15 l0 -15 30 0
30 0 0 -15 c0 -8 7 -15 15 -15 8 0 15 -7 15 -15 l0 -15 30 0 30 0 0 -15 c0 -8
7 -15 15 -15 8 0 15 -7 15 -15 l0 -15 30 0 30 0 0 -15 c0 -8 7 -15 15 -15 8 0
15 -7 15 -15 l0 -15 30 0 30 0 0 -15 0 -15 30 0 30 0 0 -15 c0 -8 7 -15 15
-15 8 0 15 -7 15 -15 0 -8 7 -15 15 -15 8 0 15 -7 15 -15 l0 -15 30 0 30 0 0
-15 c0 -8 7 -15 15 -15 8 0 15 -7 15 -15 l0 -15 30 0 30 0 0 -15 c0 -8 7 -15
15 -15 8 0 15 -7 15 -15 l0 -15 30 0 30 0 0 -15 c0 -8 7 -15 15 -15 8 0 15 -7
15 -15 l0 -15 30 0 30 0 0 -15 c0 -8 7 -15 15 -15 8 0 15 -7 15 -15 l0 -15 30
0 30 0 0 -15 c0 -8 7 -15 15 -15 8 0 15 -7 15 -15 l0 -15 30 0 30 0 0 -15 c0
-8 7 -15 15 -15 8 0 15 -7 15 -15 0 -8 7 -15 15 -15 8 0 15 -7 15 -15 l0 -15
30 0 30 0 0 -15 c0 -8 7 -15 15 -15 8 0 15 -7 15 -15 l0 -15 30 0 30 0 0 -15
c0 -8 7 -15 15 -15 8 0 15 -7 15 -15 l0 -15 30 0 30 0 0 -15 c0 -8 7 -15 15
-15 8 0 15 -7 15 -15 l0 -15 30 0 30 0 0 -15 c0 -8 7 -15 15 -15 8 0 15 -7 15
-15 l0 -15 30 0 30 0 0 -15 c0 -8 7 -15 15 -15 8 0 15 -7 15 -15 l0 -15 30 0
30 0 0 -15 c0 -8 7 -15 15 -15 8 0 15 -7 15 -15 l0 -15 30 0 30 0 0 -15 c0 -8
7 -15 15 -15 8 0 15 -7 15 -15 l0 -15 30 0 30 0 0 -15 c0 -8 7 -15 15 -15 8 0
15 -7 15 -15 l0 -15 30 0 30 0 0 -15 c0 -8 7 -15 15 -15 8 0 15 -7 15 -15 l0
-15 30 0 30 0 0 -15 c0 -8 7 -15 15 -15 8 0 15 -7 15 -15 0 -8 7 -15 15 -15 8
0 15 -7 15 -15 l0 -15 30 0 30 0 0 -15 c0 -8 7 -15 15 -15 8 0 15 -7 15 -15
l0 -15 30 0 30 0 0 -15 c0 -8 7 -15 15 -15 8 0 15 -7 15 -15 l0 -15 30 0 30 0
0 -15 c0 -8 7 -15 15 -15 8 0 15 -7 15 -15 0 -8 7 -15 15 -15 l15 0 0 30 0 30
-15 0 -15 0 0 90 0 90 -15 0 -15 0 0 90 0 90 -15 0 -15 0 0 75 0 75 -15 0 -15
0 0 90 0 90 -15 0 -15 0 0 75 0 75 -15 0 -15 0 0 90 0 90 -15 0 -15 0 0 75 0
75 -15 0 -15 0 0 90 0 90 -15 0 -15 0 0 75 0 75 -15 0 -15 0 0 90 0 90 -15 0
-15 0 0 75 0 75 -15 0 -15 0 0 90 0 90 -15 0 -15 0 0 90 0 90 -15 0 -15 0 0
75 0 75 -15 0 -15 0 0 90 0 90 -15 0 -15 0 0 75 0 75 -15 0 -15 0 0 90 0 90
-15 0 -15 0 0 75 0 75 -15 0 -15 0 0 90 0 90 -15 0 -15 0 0 75 0 75 -15 0 -15
0 0 90 0 90 -15 0 -15 0 0 75 0 75 -15 0 -15 0 0 90 0 90 -15 0 -15 0 0 90 0
90 -15 0 -15 0 0 75 0 75 -15 0 -15 0 0 45 0 45 -15 0 c-8 0 -15 7 -15 15 l0
15 -30 0 -30 0 0 15 c0 8 -7 15 -15 15 -8 0 -15 7 -15 15 l0 15 -30 0 -30 0 0
15 c0 8 -7 15 -15 15 -8 0 -15 7 -15 15 l0 15 -30 0 -30 0 0 15 c0 8 -7 15
-15 15 -8 0 -15 7 -15 15 l0 15 -30 0 -30 0 0 15 c0 8 -7 15 -15 15 -8 0 -15
7 -15 15 0 8 -7 15 -15 15 -8 0 -15 7 -15 15 l0 15 -30 0 -30 0 0 15 c0 8 -7
15 -15 15 -8 0 -15 7 -15 15 l0 15 -30 0 -30 0 0 15 c0 8 -7 15 -15 15 -8 0
-15 7 -15 15 l0 15 -30 0 -30 0 0 15 c0 8 -7 15 -15 15 -8 0 -15 7 -15 15 l0
15 -30 0 -30 0 0 15 c0 8 -7 15 -15 15 -8 0 -15 7 -15 15 l0 15 -30 0 -30 0 0
15 c0 8 -7 15 -15 15 -8 0 -15 7 -15 15 l0 15 -30 0 -30 0 0 15 c0 8 -7 15
-15 15 -8 0 -15 7 -15 15 l0 15 -30 0 -30 0 0 15 c0 8 -7 15 -15 15 -8 0 -15
7 -15 15 0 8 -7 15 -15 15 -8 0 -15 7 -15 15 l0 15 -30 0 -30 0 0 15 c0 8 -7
15 -15 15 -8 0 -15 7 -15 15 l0 15 -30 0 -30 0 0 15 0 15 -30 0 -30 0 0 15 c0
8 -7 15 -15 15 -8 0 -15 7 -15 15 l0 15 -30 0 -30 0 0 15 c0 8 -7 15 -15 15
-8 0 -15 7 -15 15 l0 15 -30 0 -30 0 0 15 c0 8 -7 15 -15 15 -8 0 -15 7 -15
15 l0 15 -30 0 -30 0 0 15 c0 8 -7 15 -15 15 -8 0 -15 7 -15 15 0 8 -7 15 -15
15 -8 0 -15 7 -15 15 l0 15 -30 0 -30 0 0 15 c0 8 -7 15 -15 15 -8 0 -15 7
-15 15 l0 15 -30 0 -30 0 0 15 c0 8 -7 15 -15 15 -8 0 -15 7 -15 15 l0 15 -30
0 -30 0 0 15 c0 8 -7 15 -15 15 -8 0 -15 7 -15 15 l0 15 -30 0 -30 0 0 15 c0
8 -7 15 -15 15 -8 0 -15 7 -15 15 l0 15 -30 0 -30 0 0 15 c0 8 -7 15 -15 15
-8 0 -15 7 -15 15 l0 15 -30 0 -30 0 0 15 c0 8 -7 15 -15 15 -8 0 -15 7 -15
15 l0 15 -30 0 -30 0 0 15 c0 8 -7 15 -15 15 -8 0 -15 7 -15 15 l0 15 -30 0
-30 0 0 -105z"/>
<path d="M1470 8325 c0 -8 -7 -15 -15 -15 -8 0 -15 -7 -15 -15 0 -8 -7 -15
-15 -15 -8 0 -15 -7 -15 -15 0 -8 -7 -15 -15 -15 -8 0 -15 -7 -15 -15 0 -8 -7
-15 -15 -15 -8 0 -15 -7 -15 -15 0 -8 -7 -15 -15 -15 -8 0 -15 -7 -15 -15 0
-8 -7 -15 -15 -15 -8 0 -15 -7 -15 -15 0 -8 -7 -15 -15 -15 -8 0 -15 -7 -15
-15 0 -8 -7 -15 -15 -15 -8 0 -15 -7 -15 -15 0 -8 -7 -15 -15 -15 -8 0 -15 -7
-15 -15 0 -8 -7 -15 -15 -15 -8 0 -15 -7 -15 -15 0 -8 -7 -15 -15 -15 -8 0
-15 -7 -15 -15 0 -8 -7 -15 -15 -15 -8 0 -15 -7 -15 -15 0 -8 -7 -15 -15 -15
-8 0 -15 -7 -15 -15 0 -8 -7 -15 -15 -15 -8 0 -15 -7 -15 -15 0 -8 -7 -15 -15
-15 -8 0 -15 -7 -15 -15 0 -8 -7 -15 -15 -15 -8 0 -15 -7 -15 -15 0 -8 -7 -15
-15 -15 -8 0 -15 -7 -15 -15 0 -8 -7 -15 -15 -15 -8 0 -15 -7 -15 -15 0 -8 -7
-15 -15 -15 -8 0 -15 -7 -15 -15 0 -8 -7 -15 -15 -15 -8 0 -15 -7 -15 -15 0
-8 -7 -15 -15 -15 -8 0 -15 -7 -15 -15 0 -8 -7 -15 -15 -15 -8 0 -15 -7 -15
-15 0 -8 -7 -15 -15 -15 -8 0 -15 -7 -15 -15 0 -8 -7 -15 -15 -15 -8 0 -15 -7
-15 -15 0 -8 -7 -15 -15 -15 -8 0 -15 -7 -15 -15 0 -8 -7 -15 -15 -15 -8 0
-15 -7 -15 -15 0 -8 -7 -15 -15 -15 -8 0 -15 -7 -15 -15 0 -8 -7 -15 -15 -15
-8 0 -15 -7 -15 -15 0 -8 -7 -15 -15 -15 l-15 0 0 -645 0 -645 390 0 390 0 0
330 0 330 15 0 c8 0 15 7 15 15 0 8 7 15 15 15 8 0 15 7 15 15 0 8 7 15 15 15
8 0 15 7 15 15 0 8 7 15 15 15 8 0 15 7 15 15 0 8 7 15 15 15 8 0 15 7 15 15
0 8 7 15 15 15 l15 0 0 30 0 30 15 0 c8 0 15 7 15 15 0 8 7 15 15 15 8 0 15 7
15 15 0 8 7 15 15 15 8 0 15 7 15 15 0 8 7 15 15 15 8 0 15 7 15 15 0 8 7 15
15 15 8 0 15 7 15 15 0 8 7 15 15 15 8 0 15 7 15 15 0 8 7 15 15 15 8 0 15 7
15 15 0 8 7 15 15 15 8 0 15 7 15 15 0 8 7 15 15 15 8 0 15 7 15 15 0 8 7 15
15 15 8 0 15 7 15 15 0 8 7 15 15 15 8 0 15 7 15 15 0 8 7 15 15 15 8 0 15 7
15 15 0 8 7 15 15 15 8 0 15 7 15 15 0 8 7 15 15 15 8 0 15 7 15 15 0 8 7 15
15 15 8 0 15 7 15 15 0 8 7 15 15 15 8 0 15 7 15 15 0 8 7 15 15 15 8 0 15 7
15 15 0 8 7 15 15 15 8 0 15 7 15 15 0 8 7 15 15 15 8 0 15 7 15 15 0 8 7 15
15 15 8 0 15 7 15 15 0 8 7 15 15 15 8 0 15 7 15 15 0 8 7 15 15 15 8 0 15 7
15 15 0 8 7 15 15 15 8 0 15 7 15 15 0 8 7 15 15 15 8 0 15 7 15 15 0 8 7 15
15 15 8 0 15 7 15 15 0 8 7 15 15 15 8 0 15 7 15 15 0 8 7 15 15 15 8 0 15 7
15 15 0 8 7 15 15 15 8 0 15 7 15 15 0 8 7 15 15 15 8 0 15 7 15 15 0 8 7 15
15 15 8 0 15 7 15 15 0 8 7 15 15 15 8 0 15 7 15 15 0 8 7 15 15 15 8 0 15 7
15 15 0 8 7 15 15 15 8 0 15 7 15 15 0 8 7 15 15 15 8 0 15 7 15 15 0 8 7 15
15 15 8 0 15 7 15 15 0 8 7 15 15 15 8 0 15 7 15 15 0 8 7 15 15 15 8 0 15 7
15 15 0 8 7 15 15 15 8 0 15 7 15 15 0 8 7 15 15 15 l15 0 0 30 0 30 15 0 c8
0 15 7 15 15 l0 15 30 0 30 0 0 30 0 30 -675 0 -675 0 0 -15z"/>
<path d="M3390 8325 c0 -8 -7 -15 -15 -15 -8 0 -15 -7 -15 -15 0 -8 -7 -15
-15 -15 -8 0 -15 -7 -15 -15 0 -8 -7 -15 -15 -15 -8 0 -15 -7 -15 -15 0 -8 -7
-15 -15 -15 -8 0 -15 -7 -15 -15 0 -8 -7 -15 -15 -15 -8 0 -15 -7 -15 -15 0
-8 -7 -15 -15 -15 -8 0 -15 -7 -15 -15 0 -8 -7 -15 -15 -15 -8 0 -15 -7 -15
-15 0 -8 -7 -15 -15 -15 -8 0 -15 -7 -15 -15 0 -8 -7 -15 -15 -15 -8 0 -15 -7
-15 -15 0 -8 -7 -15 -15 -15 -8 0 -15 -7 -15 -15 0 -8 -7 -15 -15 -15 -8 0
-15 -7 -15 -15 0 -8 -7 -15 -15 -15 -8 0 -15 -7 -15 -15 0 -8 -7 -15 -15 -15
-8 0 -15 -7 -15 -15 0 -8 -7 -15 -15 -15 -8 0 -15 -7 -15 -15 0 -8 -7 -15 -15
-15 -8 0 -15 -7 -15 -15 0 -8 -7 -15 -15 -15 -8 0 -15 -7 -15 -15 0 -8 -7 -15
-15 -15 -8 0 -15 -7 -15 -15 0 -8 -7 -15 -15 -15 -8 0 -15 -7 -15 -15 0 -8 -7
-15 -15 -15 -8 0 -15 -7 -15 -15 0 -8 -7 -15 -15 -15 l-15 0 0 -30 0 -30 -15
0 c-8 0 -15 -7 -15 -15 0 -8 -7 -15 -15 -15 -8 0 -15 -7 -15 -15 0 -8 -7 -15
-15 -15 -8 0 -15 -7 -15 -15 0 -8 -7 -15 -15 -15 -8 0 -15 -7 -15 -15 0 -8 -7
-15 -15 -15 -8 0 -15 -7 -15 -15 0 -8 -7 -15 -15 -15 -8 0 -15 -7 -15 -15 0
-8 -7 -15 -15 -15 -8 0 -15 -7 -15 -15 0 -8 -7 -15 -15 -15 -8 0 -15 -7 -15
-15 0 -8 -7 -15 -15 -15 -8 0 -15 -7 -15 -15 0 -8 -7 -15 -15 -15 -8 0 -15 -7
-15 -15 0 -8 -7 -15 -15 -15 -8 0 -15 -7 -15 -15 0 -8 -7 -15 -15 -15 -8 0
-15 -7 -15 -15 0 -8 -7 -15 -15 -15 -8 0 -15 -7 -15 -15 0 -8 -7 -15 -15 -15
-8 0 -15 -7 -15 -15 0 -8 -7 -15 -15 -15 -8 0 -15 -7 -15 -15 0 -8 -7 -15 -15
-15 -8 0 -15 -7 -15 -15 0 -8 -7 -15 -15 -15 -8 0 -15 -7 -15 -15 0 -8 -7 -15
-15 -15 -8 0 -15 -7 -15 -15 0 -8 -7 -15 -15 -15 -8 0 -15 -7 -15 -15 0 -8 -7
-15 -15 -15 -8 0 -15 -7 -15 -15 0 -8 -7 -15 -15 -15 -8 0 -15 -7 -15 -15 0
-8 -7 -15 -15 -15 -8 0 -15 -7 -15 -15 0 -8 -7 -15 -15 -15 -8 0 -15 -7 -15
-15 0 -8 -7 -15 -15 -15 -8 0 -15 -7 -15 -15 0 -8 -7 -15 -15 -15 -8 0 -15 -7
-15 -15 0 -8 -7 -15 -15 -15 -8 0 -15 -7 -15 -15 0 -8 -7 -15 -15 -15 -8 0
-15 -7 -15 -15 0 -8 -7 -15 -15 -15 -8 0 -15 -7 -15 -15 0 -8 -7 -15 -15 -15
-8 0 -15 -7 -15 -15 0 -8 -7 -15 -15 -15 -8 0 -15 -7 -15 -15 0 -8 -7 -15 -15
-15 -8 0 -15 -7 -15 -15 0 -8 -7 -15 -15 -15 -8 0 -15 -7 -15 -15 0 -8 -7 -15
-15 -15 l-15 0 0 -1230 0 -1230 15 0 c8 0 15 7 15 15 0 8 7 15 15 15 8 0 15 7
15 15 0 8 7 15 15 15 8 0 15 7 15 15 l0 15 30 0 30 0 0 15 c0 8 7 15 15 15 8
0 15 7 15 15 0 8 7 15 15 15 8 0 15 7 15 15 l0 15 30 0 30 0 0 15 c0 8 7 15
15 15 8 0 15 7 15 15 0 8 7 15 15 15 8 0 15 7 15 15 0 8 7 15 15 15 8 0 15 7
15 15 l0 15 30 0 30 0 0 15 c0 8 7 15 15 15 8 0 15 7 15 15 0 8 7 15 15 15 8
0 15 7 15 15 l0 15 30 0 30 0 0 15 c0 8 7 15 15 15 8 0 15 7 15 15 0 8 7 15
15 15 8 0 15 7 15 15 0 8 7 15 15 15 8 0 15 7 15 15 l0 15 30 0 30 0 0 15 c0
8 7 15 15 15 8 0 15 7 15 15 0 8 7 15 15 15 8 0 15 7 15 15 l0 15 30 0 30 0 0
15 c0 8 7 15 15 15 8 0 15 7 15 15 0 8 7 15 15 15 8 0 15 7 15 15 l0 15 30 0
30 0 0 15 c0 8 7 15 15 15 8 0 15 7 15 15 0 8 7 15 15 15 8 0 15 7 15 15 0 8
7 15 15 15 8 0 15 7 15 15 l0 15 30 0 30 0 0 15 c0 8 7 15 15 15 8 0 15 7 15
15 0 8 7 15 15 15 8 0 15 7 15 15 l0 15 30 0 30 0 0 15 c0 8 7 15 15 15 8 0
15 7 15 15 0 8 7 15 15 15 8 0 15 7 15 15 0 8 7 15 15 15 8 0 15 7 15 15 l0
15 30 0 30 0 0 15 c0 8 7 15 15 15 8 0 15 7 15 15 0 8 7 15 15 15 8 0 15 7 15
15 l0 15 30 0 30 0 0 15 c0 8 7 15 15 15 8 0 15 7 15 15 0 8 7 15 15 15 8 0
15 7 15 15 0 8 7 15 15 15 8 0 15 7 15 15 l0 15 30 0 30 0 0 15 c0 8 7 15 15
15 8 0 15 7 15 15 0 8 7 15 15 15 8 0 15 7 15 15 l0 15 30 0 30 0 0 15 c0 8 7
15 15 15 8 0 15 7 15 15 0 8 7 15 15 15 8 0 15 7 15 15 l0 15 30 0 30 0 0 15
c0 8 7 15 15 15 8 0 15 7 15 15 0 8 7 15 15 15 8 0 15 7 15 15 l0 15 30 0 30
0 0 15 c0 8 7 15 15 15 8 0 15 7 15 15 0 8 7 15 15 15 8 0 15 7 15 15 0 8 7
15 15 15 8 0 15 7 15 15 l0 15 30 0 30 0 0 15 c0 8 7 15 15 15 8 0 15 7 15 15
0 8 7 15 15 15 8 0 15 7 15 15 0 8 7 15 15 15 8 0 15 7 15 15 l0 15 30 0 30 0
0 15 c0 8 7 15 15 15 8 0 15 7 15 15 0 8 7 15 15 15 8 0 15 7 15 15 l0 15 30
0 30 0 0 15 c0 8 7 15 15 15 8 0 15 7 15 15 0 8 7 15 15 15 8 0 15 7 15 15 0
8 7 15 15 15 8 0 15 7 15 15 l0 15 30 0 30 0 0 15 c0 8 7 15 15 15 8 0 15 7
15 15 0 8 7 15 15 15 8 0 15 7 15 15 l0 15 30 0 30 0 0 15 c0 8 7 15 15 15 8
0 15 7 15 15 0 8 7 15 15 15 8 0 15 7 15 15 0 8 7 15 15 15 8 0 15 7 15 15 l0
15 30 0 30 0 0 15 c0 8 7 15 15 15 8 0 15 7 15 15 0 8 7 15 15 15 8 0 15 7 15
15 0 8 7 15 15 15 8 0 15 7 15 15 l0 15 30 0 30 0 0 15 c0 8 7 15 15 15 8 0
15 7 15 15 0 8 7 15 15 15 8 0 15 7 15 15 l0 15 30 0 30 0 0 15 c0 8 7 15 15
15 8 0 15 7 15 15 0 8 7 15 15 15 8 0 15 7 15 15 l0 15 30 0 30 0 0 15 c0 8 7
15 15 15 8 0 15 7 15 15 0 8 7 15 15 15 8 0 15 7 15 15 0 8 7 15 15 15 8 0 15
7 15 15 l0 15 30 0 30 0 0 15 c0 8 7 15 15 15 8 0 15 7 15 15 0 8 7 15 15 15
8 0 15 7 15 15 l0 15 30 0 30 0 0 15 c0 8 7 15 15 15 8 0 15 7 15 15 0 8 7 15
15 15 8 0 15 7 15 15 0 8 7 15 15 15 8 0 15 7 15 15 l0 15 30 0 30 0 0 15 c0
8 7 15 15 15 8 0 15 7 15 15 0 8 7 15 15 15 8 0 15 7 15 15 l0 15 30 0 30 0 0
15 c0 8 7 15 15 15 8 0 15 7 15 15 0 8 7 15 15 15 8 0 15 7 15 15 l0 15 30 0
30 0 0 15 c0 8 7 15 15 15 8 0 15 7 15 15 0 8 7 15 15 15 8 0 15 7 15 15 0 8
7 15 15 15 8 0 15 7 15 15 l0 15 30 0 30 0 0 15 c0 8 7 15 15 15 8 0 15 7 15
15 0 8 7 15 15 15 8 0 15 7 15 15 l0 15 30 0 30 0 0 15 c0 8 7 15 15 15 8 0
15 7 15 15 0 8 7 15 15 15 8 0 15 7 15 15 0 8 7 15 15 15 8 0 15 7 15 15 l0
15 30 0 30 0 0 15 c0 8 7 15 15 15 8 0 15 7 15 15 0 8 7 15 15 15 8 0 15 7 15
15 0 8 7 15 15 15 8 0 15 7 15 15 l0 15 30 0 30 0 0 15 c0 8 7 15 15 15 8 0
15 7 15 15 0 8 7 15 15 15 8 0 15 7 15 15 l0 15 30 0 30 0 0 15 c0 8 7 15 15
15 8 0 15 7 15 15 0 8 7 15 15 15 8 0 15 7 15 15 l0 15 30 0 30 0 0 15 c0 8 7
15 15 15 8 0 15 7 15 15 0 8 7 15 15 15 8 0 15 7 15 15 l0 15 30 0 30 0 0 15
c0 8 7 15 15 15 8 0 15 7 15 15 0 8 7 15 15 15 8 0 15 7 15 15 0 8 7 15 15 15
8 0 15 7 15 15 l0 15 30 0 30 0 0 15 c0 8 7 15 15 15 8 0 15 7 15 15 0 8 7 15
15 15 8 0 15 7 15 15 l0 15 30 0 30 0 0 15 c0 8 7 15 15 15 8 0 15 7 15 15 0
8 7 15 15 15 8 0 15 7 15 15 l0 15 30 0 30 0 0 15 c0 8 7 15 15 15 8 0 15 7
15 15 0 8 7 15 15 15 8 0 15 7 15 15 l0 15 -1830 0 -1830 0 0 -15z"/>
<path d="M7590 8235 c0 -8 -7 -15 -15 -15 -8 0 -15 -7 -15 -15 0 -8 -7 -15
-15 -15 -8 0 -15 -7 -15 -15 l0 -15 -30 0 -30 0 0 -15 c0 -8 -7 -15 -15 -15
-8 0 -15 -7 -15 -15 0 -8 -7 -15 -15 -15 -8 0 -15 -7 -15 -15 l0 -15 -30 0
-30 0 0 -15 c0 -8 -7 -15 -15 -15 -8 0 -15 -7 -15 -15 0 -8 -7 -15 -15 -15 -8
0 -15 -7 -15 -15 l0 -15 -30 0 -30 0 0 -15 c0 -8 -7 -15 -15 -15 -8 0 -15 -7
-15 -15 0 -8 -7 -15 -15 -15 -8 0 -15 -7 -15 -15 0 -8 -7 -15 -15 -15 -8 0
-15 -7 -15 -15 l0 -15 -30 0 -30 0 0 -15 c0 -8 -7 -15 -15 -15 -8 0 -15 -7
-15 -15 0 -8 -7 -15 -15 -15 -8 0 -15 -7 -15 -15 l0 -15 -30 0 -30 0 0 -15 c0
-8 -7 -15 -15 -15 -8 0 -15 -7 -15 -15 0 -8 -7 -15 -15 -15 -8 0 -15 -7 -15
-15 l0 -15 -30 0 -30 0 0 -15 c0 -8 -7 -15 -15 -15 -8 0 -15 -7 -15 -15 0 -8
-7 -15 -15 -15 -8 0 -15 -7 -15 -15 0 -8 -7 -15 -15 -15 -8 0 -15 -7 -15 -15
l0 -15 -30 0 -30 0 0 -15 c0 -8 -7 -15 -15 -15 -8 0 -15 -7 -15 -15 0 -8 -7
-15 -15 -15 -8 0 -15 -7 -15 -15 0 -8 -7 -15 -15 -15 -8 0 -15 -7 -15 -15 l0
-15 -30 0 -30 0 0 -15 c0 -8 -7 -15 -15 -15 -8 0 -15 -7 -15 -15 0 -8 -7 -15
-15 -15 -8 0 -15 -7 -15 -15 l0 -15 -30 0 -30 0 0 -15 c0 -8 -7 -15 -15 -15
-8 0 -15 -7 -15 -15 0 -8 -7 -15 -15 -15 -8 0 -15 -7 -15 -15 l0 -15 -30 0
-30 0 0 -15 c0 -8 -7 -15 -15 -15 -8 0 -15 -7 -15 -15 0 -8 -7 -15 -15 -15 -8
0 -15 -7 -15 -15 0 -8 -7 -15 -15 -15 -8 0 -15 -7 -15 -15 l0 -15 -30 0 -30 0
0 -15 c0 -8 -7 -15 -15 -15 -8 0 -15 -7 -15 -15 0 -8 -7 -15 -15 -15 -8 0 -15
-7 -15 -15 l0 -15 -30 0 -30 0 0 -15 c0 -8 -7 -15 -15 -15 -8 0 -15 -7 -15
-15 0 -8 -7 -15 -15 -15 -8 0 -15 -7 -15 -15 l0 -15 -30 0 -30 0 0 -15 c0 -8
-7 -15 -15 -15 -8 0 -15 -7 -15 -15 0 -8 -7 -15 -15 -15 -8 0 -15 -7 -15 -15
0 -8 -7 -15 -15 -15 -8 0 -15 -7 -15 -15 l0 -15 -30 0 -30 0 0 -15 c0 -8 -7
-15 -15 -15 -8 0 -15 -7 -15 -15 0 -8 -7 -15 -15 -15 -8 0 -15 -7 -15 -15 l0
-15 -30 0 -30 0 0 -15 c0 -8 -7 -15 -15 -15 -8 0 -15 -7 -15 -15 0 -8 -7 -15
-15 -15 -8 0 -15 -7 -15 -15 l0 -15 -30 0 -30 0 0 -15 c0 -8 -7 -15 -15 -15
-8 0 -15 -7 -15 -15 0 -8 -7 -15 -15 -15 -8 0 -15 -7 -15 -15 0 -8 -7 -15 -15
-15 -8 0 -15 -7 -15 -15 l0 -15 -30 0 -30 0 0 -15 c0 -8 -7 -15 -15 -15 -8 0
-15 -7 -15 -15 0 -8 -7 -15 -15 -15 -8 0 -15 -7 -15 -15 0 -8 -7 -15 -15 -15
-8 0 -15 -7 -15 -15 l0 -15 -30 0 -30 0 0 -15 c0 -8 -7 -15 -15 -15 -8 0 -15
-7 -15 -15 0 -8 -7 -15 -15 -15 -8 0 -15 -7 -15 -15 0 -8 -7 -15 -15 -15 -8 0
-15 -7 -15 -15 l0 -15 -30 0 -30 0 0 -15 c0 -8 -7 -15 -15 -15 -8 0 -15 -7
-15 -15 l0 -15 -30 0 -30 0 0 -30 0 -30 -15 0 -15 0 0 -225 0 -225 15 0 15 0
0 -285 0 -285 -15 0 -15 0 0 -45 0 -45 15 0 15 0 0 -75 0 -75 -15 0 c-8 0 -15
-7 -15 -15 0 -8 7 -15 15 -15 l15 0 0 -30 0 -30 -15 0 c-8 0 -15 -7 -15 -15 0
-8 7 -15 15 -15 l15 0 0 -30 0 -30 -15 0 c-8 0 -15 -7 -15 -15 0 -8 7 -15 15
-15 8 0 15 -7 15 -15 0 -8 7 -15 15 -15 8 0 15 -7 15 -15 0 -8 7 -15 15 -15 8
0 15 -7 15 -15 l0 -15 30 0 30 0 0 -15 c0 -8 7 -15 15 -15 8 0 15 -7 15 -15 0
-8 7 -15 15 -15 8 0 15 -7 15 -15 0 -8 7 -15 15 -15 8 0 15 -7 15 -15 l0 -15
30 0 30 0 0 -15 c0 -8 7 -15 15 -15 8 0 15 -7 15 -15 0 -8 7 -15 15 -15 8 0
15 -7 15 -15 l0 -15 30 0 30 0 0 -15 c0 -8 7 -15 15 -15 8 0 15 -7 15 -15 0
-8 7 -15 15 -15 8 0 15 -7 15 -15 l0 -15 30 0 30 0 0 -15 c0 -8 7 -15 15 -15
8 0 15 -7 15 -15 l0 -15 30 0 30 0 0 -15 c0 -8 7 -15 15 -15 8 0 15 -7 15 -15
0 -8 7 -15 15 -15 8 0 15 -7 15 -15 0 -8 7 -15 15 -15 l15 0 0 690 0 690 210
0 210 0 0 -855 0 -855 15 0 c8 0 15 -7 15 -15 l0 -15 30 0 30 0 0 -15 c0 -8 7
-15 15 -15 8 0 15 -7 15 -15 0 -8 7 -15 15 -15 8 0 15 -7 15 -15 l0 -15 30 0
30 0 0 -15 c0 -8 7 -15 15 -15 8 0 15 -7 15 -15 l0 -15 30 0 30 0 0 -15 c0 -8
7 -15 15 -15 8 0 15 -7 15 -15 0 -8 7 -15 15 -15 8 0 15 -7 15 -15 l0 -15 30
0 30 0 0 -15 c0 -8 7 -15 15 -15 8 0 15 -7 15 -15 0 -8 7 -15 15 -15 8 0 15
-7 15 -15 l0 -15 30 0 30 0 0 -15 c0 -8 7 -15 15 -15 8 0 15 -7 15 -15 0 -8 7
-15 15 -15 8 0 15 -7 15 -15 l0 -15 30 0 30 0 0 -15 c0 -8 7 -15 15 -15 8 0
15 -7 15 -15 l0 -15 30 0 30 0 0 -15 c0 -8 7 -15 15 -15 8 0 15 -7 15 -15 0
-8 7 -15 15 -15 8 0 15 -7 15 -15 l0 -15 30 0 30 0 0 -15 c0 -8 7 -15 15 -15
l15 0 0 1335 0 1335 210 0 210 0 0 -1665 0 -1665 15 0 15 0 0 -75 0 -75 15 0
15 0 0 -75 0 -75 15 0 15 0 0 -75 0 -75 15 0 15 0 0 -75 0 -75 15 0 15 0 0
-75 0 -75 15 0 15 0 0 -75 0 -75 15 0 15 0 0 -75 0 -75 15 0 15 0 0 -60 0 -60
15 0 15 0 0 -75 0 -75 15 0 15 0 0 -75 0 -75 15 0 15 0 0 -45 0 -45 -1725 0
-1725 0 0 735 0 735 15 0 15 0 0 30 0 30 15 0 c8 0 15 7 15 15 0 8 7 15 15 15
l15 0 0 30 0 30 15 0 c8 0 15 7 15 15 0 8 7 15 15 15 8 0 15 7 15 15 0 8 7 15
15 15 8 0 15 7 15 15 0 8 7 15 15 15 8 0 15 7 15 15 0 8 7 15 15 15 8 0 15 7
15 15 0 8 7 15 15 15 8 0 15 7 15 15 0 8 7 15 15 15 l15 0 0 30 0 30 15 0 c8
0 15 7 15 15 0 8 7 15 15 15 8 0 15 7 15 15 0 8 7 15 15 15 8 0 15 7 15 15 0
8 7 15 15 15 8 0 15 7 15 15 0 8 7 15 15 15 l15 0 0 30 0 30 15 0 c8 0 15 7
15 15 0 8 7 15 15 15 8 0 15 7 15 15 0 8 7 15 15 15 8 0 15 7 15 15 0 8 7 15
15 15 8 0 15 7 15 15 0 8 7 15 15 15 8 0 15 7 15 15 0 8 7 15 15 15 l15 0 0
30 0 30 15 0 c8 0 15 7 15 15 0 8 7 15 15 15 8 0 15 7 15 15 0 8 7 15 15 15 8
0 15 7 15 15 0 8 7 15 15 15 8 0 15 7 15 15 0 8 7 15 15 15 8 0 15 7 15 15 0
8 7 15 15 15 l15 0 0 30 0 30 15 0 c8 0 15 7 15 15 0 8 7 15 15 15 8 0 15 7
15 15 0 8 7 15 15 15 8 0 15 7 15 15 0 8 7 15 15 15 8 0 15 7 15 15 0 8 7 15
15 15 l15 0 0 30 0 30 15 0 c8 0 15 7 15 15 0 8 7 15 15 15 8 0 15 7 15 15 0
8 7 15 15 15 8 0 15 7 15 15 0 8 7 15 15 15 8 0 15 7 15 15 0 8 7 15 15 15 8
0 15 7 15 15 0 8 7 15 15 15 l15 0 0 45 0 45 -30 0 -30 0 0 15 c0 8 -7 15 -15
15 -8 0 -15 7 -15 15 0 8 -7 15 -15 15 -8 0 -15 7 -15 15 l0 15 -30 0 -30 0 0
15 c0 8 -7 15 -15 15 -8 0 -15 7 -15 15 0 8 -7 15 -15 15 -8 0 -15 7 -15 15
l0 15 -30 0 -30 0 0 15 c0 8 -7 15 -15 15 -8 0 -15 7 -15 15 0 8 -7 15 -15 15
-8 0 -15 7 -15 15 l0 15 -30 0 -30 0 0 15 c0 8 -7 15 -15 15 -8 0 -15 7 -15
15 0 8 -7 15 -15 15 -8 0 -15 7 -15 15 l0 15 -30 0 -30 0 0 15 c0 8 -7 15 -15
15 -8 0 -15 7 -15 15 0 8 -7 15 -15 15 -8 0 -15 7 -15 15 l0 15 -30 0 -30 0 0
15 0 15 -30 0 -30 0 0 -15 c0 -8 -7 -15 -15 -15 -8 0 -15 -7 -15 -15 0 -8 -7
-15 -15 -15 -8 0 -15 -7 -15 -15 0 -8 -7 -15 -15 -15 l-15 0 0 -30 0 -30 -15
0 c-8 0 -15 -7 -15 -15 0 -8 -7 -15 -15 -15 -8 0 -15 -7 -15 -15 0 -8 -7 -15
-15 -15 -8 0 -15 -7 -15 -15 0 -8 -7 -15 -15 -15 -8 0 -15 -7 -15 -15 0 -8 -7
-15 -15 -15 l-15 0 0 -30 0 -30 -15 0 c-8 0 -15 -7 -15 -15 0 -8 -7 -15 -15
-15 -8 0 -15 -7 -15 -15 0 -8 -7 -15 -15 -15 -8 0 -15 -7 -15 -15 0 -8 -7 -15
-15 -15 l-15 0 0 -30 0 -30 -15 0 c-8 0 -15 -7 -15 -15 0 -8 -7 -15 -15 -15
-8 0 -15 -7 -15 -15 0 -8 -7 -15 -15 -15 -8 0 -15 -7 -15 -15 0 -8 -7 -15 -15
-15 -8 0 -15 -7 -15 -15 0 -8 -7 -15 -15 -15 l-15 0 0 -30 0 -30 -15 0 c-8 0
-15 -7 -15 -15 0 -8 -7 -15 -15 -15 -8 0 -15 -7 -15 -15 0 -8 -7 -15 -15 -15
-8 0 -15 -7 -15 -15 0 -8 -7 -15 -15 -15 -8 0 -15 -7 -15 -15 0 -8 -7 -15 -15
-15 l-15 0 0 -30 0 -30 -15 0 c-8 0 -15 -7 -15 -15 0 -8 -7 -15 -15 -15 -8 0
-15 -7 -15 -15 0 -8 -7 -15 -15 -15 -8 0 -15 -7 -15 -15 0 -8 -7 -15 -15 -15
-8 0 -15 -7 -15 -15 0 -8 -7 -15 -15 -15 l-15 0 0 -30 0 -30 -15 0 c-8 0 -15
-7 -15 -15 0 -8 -7 -15 -15 -15 -8 0 -15 -7 -15 -15 0 -8 -7 -15 -15 -15 -8 0
-15 -7 -15 -15 0 -8 -7 -15 -15 -15 -8 0 -15 -7 -15 -15 0 -8 -7 -15 -15 -15
l-15 0 0 -30 0 -30 -15 0 c-8 0 -15 -7 -15 -15 0 -8 -7 -15 -15 -15 -8 0 -15
-7 -15 -15 0 -8 -7 -15 -15 -15 -8 0 -15 -7 -15 -15 0 -8 -7 -15 -15 -15 -8 0
-15 -7 -15 -15 0 -8 -7 -15 -15 -15 l-15 0 0 -30 0 -30 -15 0 c-8 0 -15 -7
-15 -15 0 -8 -7 -15 -15 -15 -8 0 -15 -7 -15 -15 0 -8 -7 -15 -15 -15 -8 0
-15 -7 -15 -15 0 -8 -7 -15 -15 -15 -8 0 -15 -7 -15 -15 0 -8 -7 -15 -15 -15
l-15 0 0 -30 0 -30 -15 0 c-8 0 -15 -7 -15 -15 0 -8 -7 -15 -15 -15 -8 0 -15
-7 -15 -15 0 -8 -7 -15 -15 -15 -8 0 -15 -7 -15 -15 0 -8 -7 -15 -15 -15 -8 0
-15 -7 -15 -15 0 -8 -7 -15 -15 -15 l-15 0 0 -30 0 -30 -15 0 c-8 0 -15 -7
-15 -15 0 -8 -7 -15 -15 -15 -8 0 -15 -7 -15 -15 0 -8 -7 -15 -15 -15 -8 0
-15 -7 -15 -15 0 -8 -7 -15 -15 -15 l-15 0 0 -75 0 -75 15 0 15 0 0 -60 0 -60
15 0 15 0 0 -75 0 -75 15 0 15 0 0 -60 0 -60 15 0 15 0 0 -60 0 -60 15 0 15 0
0 -60 0 -60 15 0 15 0 0 -75 0 -75 15 0 15 0 0 -60 0 -60 15 0 15 0 0 -60 0
-60 15 0 15 0 0 -60 0 -60 15 0 15 0 0 -60 0 -60 15 0 15 0 0 -60 0 -60 -390
0 -390 0 0 810 0 810 15 0 c8 0 15 7 15 15 0 8 7 15 15 15 8 0 15 7 15 15 0 8
7 15 15 15 8 0 15 7 15 15 0 8 7 15 15 15 l15 0 0 30 0 30 15 0 c8 0 15 7 15
15 0 8 7 15 15 15 8 0 15 7 15 15 0 8 7 15 15 15 8 0 15 7 15 15 0 8 7 15 15
15 8 0 15 7 15 15 0 8 7 15 15 15 8 0 15 7 15 15 0 8 7 15 15 15 l15 0 0 30 0
30 15 0 c8 0 15 7 15 15 0 8 7 15 15 15 8 0 15 7 15 15 0 8 7 15 15 15 8 0 15
7 15 15 0 8 7 15 15 15 8 0 15 7 15 15 0 8 7 15 15 15 l15 0 0 30 0 30 15 0
c8 0 15 7 15 15 0 8 7 15 15 15 8 0 15 7 15 15 0 8 7 15 15 15 8 0 15 7 15 15
0 8 7 15 15 15 8 0 15 7 15 15 0 8 7 15 15 15 l15 0 0 30 0 30 15 0 c8 0 15 7
15 15 0 8 7 15 15 15 8 0 15 7 15 15 0 8 7 15 15 15 8 0 15 7 15 15 0 8 7 15
15 15 8 0 15 7 15 15 0 8 7 15 15 15 l15 0 0 30 0 30 15 0 c8 0 15 7 15 15 0
8 7 15 15 15 8 0 15 7 15 15 0 8 7 15 15 15 8 0 15 7 15 15 0 8 7 15 15 15 8
0 15 7 15 15 0 8 7 15 15 15 l15 0 0 30 0 30 15 0 c8 0 15 7 15 15 0 8 7 15
15 15 8 0 15 7 15 15 0 8 7 15 15 15 8 0 15 7 15 15 0 8 7 15 15 15 8 0 15 7
15 15 0 8 7 15 15 15 l15 0 0 30 0 30 15 0 c8 0 15 7 15 15 0 8 7 15 15 15 8
0 15 7 15 15 0 8 7 15 15 15 8 0 15 7 15 15 0 8 7 15 15 15 8 0 15 7 15 15 0
8 7 15 15 15 l15 0 0 30 0 30 15 0 c8 0 15 7 15 15 0 8 7 15 15 15 8 0 15 7
15 15 0 8 7 15 15 15 8 0 15 7 15 15 0 8 7 15 15 15 8 0 15 7 15 15 0 8 7 15
15 15 l15 0 0 30 0 30 15 0 c8 0 15 7 15 15 0 8 7 15 15 15 8 0 15 7 15 15 0
8 7 15 15 15 8 0 15 7 15 15 0 8 7 15 15 15 8 0 15 7 15 15 0 8 7 15 15 15
l15 0 0 30 0 30 15 0 c8 0 15 7 15 15 0 8 7 15 15 15 8 0 15 7 15 15 0 8 7 15
15 15 8 0 15 7 15 15 0 8 7 15 15 15 8 0 15 7 15 15 0 8 7 15 15 15 l15 0 0
30 0 30 15 0 c8 0 15 7 15 15 0 8 7 15 15 15 8 0 15 7 15 15 0 8 7 15 15 15 8
0 15 7 15 15 0 8 7 15 15 15 8 0 15 7 15 15 0 8 7 15 15 15 l15 0 0 30 0 30
15 0 15 0 0 555 0 555 -15 0 c-8 0 -15 -7 -15 -15 0 -8 -7 -15 -15 -15 -8 0
-15 -7 -15 -15 0 -8 -7 -15 -15 -15 -8 0 -15 -7 -15 -15 l0 -15 -30 0 -30 0 0
-15 c0 -8 -7 -15 -15 -15 -8 0 -15 -7 -15 -15 0 -8 -7 -15 -15 -15 -8 0 -15
-7 -15 -15 l0 -15 -30 0 -30 0 0 -15 c0 -8 -7 -15 -15 -15 -8 0 -15 -7 -15
-15 0 -8 -7 -15 -15 -15 -8 0 -15 -7 -15 -15 l0 -15 -30 0 -30 0 0 -15 c0 -8
-7 -15 -15 -15 -8 0 -15 -7 -15 -15 0 -8 -7 -15 -15 -15 -8 0 -15 -7 -15 -15
0 -8 -7 -15 -15 -15 -8 0 -15 -7 -15 -15 l0 -15 -30 0 -30 0 0 -15 c0 -8 -7
-15 -15 -15 -8 0 -15 -7 -15 -15 0 -8 -7 -15 -15 -15 -8 0 -15 -7 -15 -15 l0
-15 -30 0 -30 0 0 -15 c0 -8 -7 -15 -15 -15 -8 0 -15 -7 -15 -15 0 -8 -7 -15
-15 -15 -8 0 -15 -7 -15 -15 0 -8 -7 -15 -15 -15 -8 0 -15 -7 -15 -15 l0 -15
-30 0 -30 0 0 -15 c0 -8 -7 -15 -15 -15 -8 0 -15 -7 -15 -15 0 -8 -7 -15 -15
-15 -8 0 -15 -7 -15 -15 l0 -15 -30 0 -30 0 0 -15 c0 -8 -7 -15 -15 -15 -8 0
-15 -7 -15 -15 0 -8 -7 -15 -15 -15 -8 0 -15 -7 -15 -15 0 -8 -7 -15 -15 -15
-8 0 -15 -7 -15 -15 l0 -15 -30 0 -30 0 0 -15 c0 -8 -7 -15 -15 -15 -8 0 -15
-7 -15 -15 0 -8 -7 -15 -15 -15 -8 0 -15 -7 -15 -15 l0 -15 -30 0 -30 0 0 -15
c0 -8 -7 -15 -15 -15 -8 0 -15 -7 -15 -15 0 -8 -7 -15 -15 -15 -8 0 -15 -7
-15 -15 0 -8 -7 -15 -15 -15 -8 0 -15 -7 -15 -15 l0 -15 -30 0 -30 0 0 -15 c0
-8 -7 -15 -15 -15 -8 0 -15 -7 -15 -15 0 -8 -7 -15 -15 -15 -8 0 -15 -7 -15
-15 l0 -15 -30 0 -30 0 0 -15 c0 -8 -7 -15 -15 -15 -8 0 -15 -7 -15 -15 0 -8
-7 -15 -15 -15 -8 0 -15 -7 -15 -15 l0 -15 -30 0 -30 0 0 -15 c0 -8 -7 -15
-15 -15 -8 0 -15 -7 -15 -15 0 -8 -7 -15 -15 -15 -8 0 -15 -7 -15 -15 0 -8 -7
-15 -15 -15 -8 0 -15 -7 -15 -15 l0 -15 -30 0 -30 0 0 -15 c0 -8 -7 -15 -15
-15 -8 0 -15 -7 -15 -15 0 -8 -7 -15 -15 -15 -8 0 -15 -7 -15 -15 0 -8 -7 -15
-15 -15 -8 0 -15 -7 -15 -15 l0 -15 -30 0 -30 0 0 -15 c0 -8 -7 -15 -15 -15
-8 0 -15 -7 -15 -15 0 -8 -7 -15 -15 -15 -8 0 -15 -7 -15 -15 l0 -15 -30 0
-30 0 0 -15 c0 -8 -7 -15 -15 -15 -8 0 -15 -7 -15 -15 0 -8 -7 -15 -15 -15 -8
0 -15 -7 -15 -15 l0 -15 -30 0 -30 0 0 -15 c0 -8 -7 -15 -15 -15 -8 0 -15 -7
-15 -15 0 -8 -7 -15 -15 -15 -8 0 -15 -7 -15 -15 l0 -15 -30 0 -30 0 0 -15 c0
-8 -7 -15 -15 -15 -8 0 -15 -7 -15 -15 0 -8 -7 -15 -15 -15 -8 0 -15 -7 -15
-15 0 -8 -7 -15 -15 -15 -8 0 -15 -7 -15 -15 l0 -15 -30 0 -30 0 0 -15 c0 -8
-7 -15 -15 -15 -8 0 -15 -7 -15 -15 0 -8 -7 -15 -15 -15 -8 0 -15 -7 -15 -15
l0 -15 -30 0 -30 0 0 -15 c0 -8 -7 -15 -15 -15 -8 0 -15 -7 -15 -15 0 -8 -7
-15 -15 -15 -8 0 -15 -7 -15 -15 0 -8 -7 -15 -15 -15 -8 0 -15 -7 -15 -15 l0
-15 -30 0 -30 0 0 -15 c0 -8 -7 -15 -15 -15 -8 0 -15 -7 -15 -15 0 -8 -7 -15
-15 -15 -8 0 -15 -7 -15 -15 0 -8 -7 -15 -15 -15 -8 0 -15 -7 -15 -15 l0 -15
-30 0 -30 0 0 -15 c0 -8 -7 -15 -15 -15 -8 0 -15 -7 -15 -15 0 -8 -7 -15 -15
-15 -8 0 -15 -7 -15 -15 l0 -15 -30 0 -30 0 0 -15 c0 -8 -7 -15 -15 -15 -8 0
-15 -7 -15 -15 0 -8 -7 -15 -15 -15 -8 0 -15 -7 -15 -15 l0 -15 -30 0 -30 0 0
-15 c0 -8 -7 -15 -15 -15 -8 0 -15 -7 -15 -15 0 -8 -7 -15 -15 -15 -8 0 -15
-7 -15 -15 0 -8 -7 -15 -15 -15 l-15 0 0 -30 0 -30 15 0 15 0 0 -75 0 -75 15
0 15 0 0 -75 0 -75 15 0 15 0 0 -75 0 -75 15 0 15 0 0 -75 0 -75 15 0 15 0 0
-75 0 -75 15 0 15 0 0 -75 0 -75 15 0 15 0 0 -75 0 -75 15 0 15 0 0 -75 0 -75
15 0 15 0 0 -75 0 -75 15 0 15 0 0 -75 0 -75 15 0 15 0 0 -75 0 -75 15 0 15 0
0 -75 0 -75 15 0 15 0 0 -75 0 -75 15 0 15 0 0 -75 0 -75 15 0 15 0 0 -75 0
-75 15 0 15 0 0 -75 0 -75 -645 0 -645 0 0 -210 0 -210 5355 0 5355 0 0 15 c0
8 7 15 15 15 8 0 15 7 15 15 0 8 -7 15 -15 15 l-15 0 0 180 0 180 -750 0 -750
0 0 15 c0 8 7 15 15 15 l15 0 0 60 0 60 15 0 15 0 0 60 0 60 15 0 15 0 0 75 0
75 15 0 15 0 0 60 0 60 15 0 15 0 0 75 0 75 15 0 15 0 0 60 0 60 15 0 15 0 0
60 0 60 15 0 15 0 0 75 0 75 15 0 15 0 0 60 0 60 15 0 15 0 0 75 0 75 15 0 15
0 0 60 0 60 15 0 15 0 0 60 0 60 15 0 15 0 0 75 0 75 15 0 15 0 0 60 0 60 15
0 15 0 0 60 0 60 15 0 15 0 0 75 0 75 15 0 15 0 0 60 0 60 15 0 15 0 0 60 0
60 15 0 15 0 0 75 0 75 15 0 15 0 0 60 0 60 15 0 15 0 0 75 0 75 15 0 15 0 0
60 0 60 15 0 15 0 0 60 0 60 15 0 15 0 0 75 0 75 15 0 15 0 0 60 0 60 15 0 15
0 0 60 0 60 15 0 15 0 0 60 0 60 15 0 15 0 0 60 0 60 15 0 15 0 0 60 0 60 -15
0 c-8 0 -15 -7 -15 -15 0 -8 -7 -15 -15 -15 -8 0 -15 -7 -15 -15 0 -8 -7 -15
-15 -15 -8 0 -15 -7 -15 -15 0 -8 -7 -15 -15 -15 -8 0 -15 -7 -15 -15 0 -8 -7
-15 -15 -15 -8 0 -15 -7 -15 -15 0 -8 -7 -15 -15 -15 l-15 0 0 -30 0 -30 -15
0 c-8 0 -15 -7 -15 -15 0 -8 -7 -15 -15 -15 -8 0 -15 -7 -15 -15 0 -8 -7 -15
-15 -15 -8 0 -15 -7 -15 -15 0 -8 -7 -15 -15 -15 -8 0 -15 -7 -15 -15 0 -8 -7
-15 -15 -15 -8 0 -15 -7 -15 -15 0 -8 -7 -15 -15 -15 -8 0 -15 -7 -15 -15 0
-8 -7 -15 -15 -15 -8 0 -15 -7 -15 -15 0 -8 -7 -15 -15 -15 -8 0 -15 -7 -15
-15 0 -8 -7 -15 -15 -15 -8 0 -15 -7 -15 -15 0 -8 -7 -15 -15 -15 -8 0 -15 -7
-15 -15 0 -8 -7 -15 -15 -15 -8 0 -15 -7 -15 -15 0 -8 -7 -15 -15 -15 -8 0
-15 -7 -15 -15 0 -8 -7 -15 -15 -15 -8 0 -15 -7 -15 -15 0 -8 -7 -15 -15 -15
-8 0 -15 -7 -15 -15 0 -8 -7 -15 -15 -15 l-15 0 0 -30 0 -30 -15 0 c-8 0 -15
-7 -15 -15 0 -8 -7 -15 -15 -15 -8 0 -15 -7 -15 -15 0 -8 -7 -15 -15 -15 -8 0
-15 -7 -15 -15 0 -8 -7 -15 -15 -15 -8 0 -15 -7 -15 -15 0 -8 -7 -15 -15 -15
-8 0 -15 -7 -15 -15 0 -8 -7 -15 -15 -15 -8 0 -15 -7 -15 -15 0 -8 -7 -15 -15
-15 -8 0 -15 -7 -15 -15 0 -8 -7 -15 -15 -15 -8 0 -15 -7 -15 -15 0 -8 -7 -15
-15 -15 -8 0 -15 -7 -15 -15 0 -8 -7 -15 -15 -15 -8 0 -15 -7 -15 -15 0 -8 -7
-15 -15 -15 -8 0 -15 -7 -15 -15 0 -8 -7 -15 -15 -15 -8 0 -15 -7 -15 -15 0
-8 -7 -15 -15 -15 -8 0 -15 -7 -15 -15 0 -8 -7 -15 -15 -15 -8 0 -15 -7 -15
-15 0 -8 -7 -15 -15 -15 -8 0 -15 -7 -15 -15 0 -8 -7 -15 -15 -15 l-15 0 0
-30 0 -30 -15 0 c-8 0 -15 -7 -15 -15 0 -8 -7 -15 -15 -15 -8 0 -15 -7 -15
-15 0 -8 -7 -15 -15 -15 -8 0 -15 -7 -15 -15 0 -8 -7 -15 -15 -15 -8 0 -15 -7
-15 -15 0 -8 -7 -15 -15 -15 -8 0 -15 -7 -15 -15 0 -8 -7 -15 -15 -15 -8 0
-15 -7 -15 -15 0 -8 -7 -15 -15 -15 -8 0 -15 -7 -15 -15 0 -8 -7 -15 -15 -15
-8 0 -15 -7 -15 -15 0 -8 -7 -15 -15 -15 -8 0 -15 -7 -15 -15 0 -8 -7 -15 -15
-15 -8 0 -15 -7 -15 -15 0 -8 -7 -15 -15 -15 -8 0 -15 -7 -15 -15 0 -8 -7 -15
-15 -15 -8 0 -15 -7 -15 -15 0 -8 -7 -15 -15 -15 -8 0 -15 -7 -15 -15 0 -8 -7
-15 -15 -15 -8 0 -15 -7 -15 -15 0 -8 -7 -15 -15 -15 -8 0 -15 -7 -15 -15 0
-8 -7 -15 -15 -15 -8 0 -15 -7 -15 -15 0 -8 -7 -15 -15 -15 l-15 0 0 -30 0
-30 -15 0 c-8 0 -15 -7 -15 -15 0 -8 -7 -15 -15 -15 -8 0 -15 -7 -15 -15 0 -8
-7 -15 -15 -15 l-15 0 0 -990 0 -990 -210 0 -210 0 0 3330 0 3330 -30 0 -30 0
0 15 c0 8 -7 15 -15 15 -8 0 -15 7 -15 15 l0 15 -30 0 -30 0 0 15 c0 8 -7 15
-15 15 -8 0 -15 7 -15 15 l0 15 -30 0 -30 0 0 15 c0 8 -7 15 -15 15 -8 0 -15
7 -15 15 0 8 -7 15 -15 15 -8 0 -15 7 -15 15 l0 15 -30 0 -30 0 0 15 c0 8 -7
15 -15 15 -8 0 -15 7 -15 15 l0 15 -30 0 -30 0 0 15 c0 8 -7 15 -15 15 -8 0
-15 7 -15 15 l0 15 -30 0 -30 0 0 15 c0 8 -7 15 -15 15 -8 0 -15 7 -15 15 l0
15 -30 0 -30 0 0 15 c0 8 -7 15 -15 15 -8 0 -15 7 -15 15 l0 15 -30 0 -30 0 0
15 c0 8 -7 15 -15 15 -8 0 -15 7 -15 15 l0 15 -30 0 -30 0 0 15 c0 8 -7 15
-15 15 -8 0 -15 7 -15 15 l0 15 -30 0 -30 0 0 15 0 15 -30 0 -30 0 0 -15z
m270 -780 c0 -8 7 -15 15 -15 8 0 15 7 15 15 0 8 7 15 15 15 8 0 15 -7 15 -15
l0 -15 75 0 75 0 0 -960 0 -960 -15 0 c-8 0 -15 -7 -15 -15 l0 -15 -195 0
-195 0 0 975 0 975 15 0 c8 0 15 7 15 15 l0 15 90 0 90 0 0 -15z m-1110 -1650
l0 -675 -15 0 c-8 0 -15 -7 -15 -15 l0 -15 -135 0 -135 0 0 15 0 15 -30 0 -30
0 0 -15 c0 -8 -7 -15 -15 -15 -8 0 -15 7 -15 15 0 8 -7 15 -15 15 l-15 0 0
675 0 675 210 0 210 0 0 -675z"/>
<path d="M8970 5460 l0 -1890 15 0 c8 0 15 7 15 15 0 8 7 15 15 15 8 0 15 7
15 15 0 8 7 15 15 15 8 0 15 7 15 15 0 8 7 15 15 15 8 0 15 7 15 15 0 8 7 15
15 15 8 0 15 7 15 15 0 8 7 15 15 15 8 0 15 7 15 15 0 8 7 15 15 15 8 0 15 7
15 15 0 8 7 15 15 15 8 0 15 7 15 15 0 8 7 15 15 15 8 0 15 7 15 15 0 8 7 15
15 15 8 0 15 7 15 15 0 8 7 15 15 15 8 0 15 7 15 15 0 8 7 15 15 15 l15 0 0
30 0 30 15 0 c8 0 15 7 15 15 0 8 7 15 15 15 8 0 15 7 15 15 0 8 7 15 15 15 8
0 15 7 15 15 0 8 7 15 15 15 8 0 15 7 15 15 0 8 7 15 15 15 8 0 15 7 15 15 0
8 7 15 15 15 8 0 15 7 15 15 0 8 7 15 15 15 8 0 15 7 15 15 0 8 7 15 15 15 8
0 15 7 15 15 0 8 7 15 15 15 8 0 15 7 15 15 0 8 7 15 15 15 8 0 15 7 15 15 0
8 7 15 15 15 8 0 15 7 15 15 0 8 7 15 15 15 8 0 15 7 15 15 0 8 7 15 15 15 8
0 15 7 15 15 0 8 7 15 15 15 l15 0 0 30 0 30 15 0 c8 0 15 7 15 15 0 8 7 15
15 15 8 0 15 7 15 15 0 8 7 15 15 15 8 0 15 7 15 15 0 8 7 15 15 15 8 0 15 7
15 15 0 8 7 15 15 15 8 0 15 7 15 15 0 8 7 15 15 15 8 0 15 7 15 15 0 8 7 15
15 15 8 0 15 7 15 15 0 8 7 15 15 15 8 0 15 7 15 15 0 8 7 15 15 15 8 0 15 7
15 15 0 8 7 15 15 15 8 0 15 7 15 15 0 8 7 15 15 15 8 0 15 7 15 15 0 8 7 15
15 15 8 0 15 7 15 15 0 8 7 15 15 15 8 0 15 7 15 15 0 8 7 15 15 15 8 0 15 7
15 15 0 8 7 15 15 15 8 0 15 7 15 15 0 8 7 15 15 15 l15 0 0 30 0 30 15 0 c8
0 15 7 15 15 0 8 7 15 15 15 8 0 15 7 15 15 0 8 7 15 15 15 8 0 15 7 15 15 0
8 7 15 15 15 8 0 15 7 15 15 0 8 7 15 15 15 8 0 15 7 15 15 0 8 7 15 15 15 8
0 15 7 15 15 0 8 7 15 15 15 8 0 15 7 15 15 0 8 7 15 15 15 8 0 15 7 15 15 0
8 7 15 15 15 8 0 15 7 15 15 0 8 7 15 15 15 8 0 15 7 15 15 0 8 7 15 15 15 8
0 15 7 15 15 0 8 7 15 15 15 8 0 15 7 15 15 0 8 7 15 15 15 8 0 15 7 15 15 0
8 7 15 15 15 l15 0 0 30 0 30 15 0 c8 0 15 7 15 15 0 8 7 15 15 15 8 0 15 7
15 15 0 8 7 15 15 15 8 0 15 7 15 15 0 8 7 15 15 15 8 0 15 7 15 15 0 8 7 15
15 15 8 0 15 7 15 15 0 8 7 15 15 15 8 0 15 7 15 15 0 8 7 15 15 15 8 0 15 7
15 15 0 8 7 15 15 15 8 0 15 7 15 15 0 8 7 15 15 15 8 0 15 7 15 15 0 8 7 15
15 15 8 0 15 7 15 15 0 8 7 15 15 15 8 0 15 7 15 15 0 8 7 15 15 15 8 0 15 7
15 15 0 8 7 15 15 15 8 0 15 7 15 15 0 8 7 15 15 15 l15 0 0 30 0 30 15 0 c8
0 15 7 15 15 0 8 7 15 15 15 l15 0 0 30 0 30 -30 0 -30 0 0 15 c0 8 -7 15 -15
15 -8 0 -15 7 -15 15 l0 15 -30 0 -30 0 0 15 c0 8 -7 15 -15 15 -8 0 -15 7
-15 15 l0 15 -30 0 -30 0 0 15 c0 8 -7 15 -15 15 -8 0 -15 7 -15 15 0 8 -7 15
-15 15 -8 0 -15 7 -15 15 l0 15 -30 0 -30 0 0 15 c0 8 -7 15 -15 15 -8 0 -15
7 -15 15 l0 15 -30 0 -30 0 0 15 c0 8 -7 15 -15 15 -8 0 -15 7 -15 15 l0 15
-30 0 -30 0 0 15 c0 8 -7 15 -15 15 -8 0 -15 7 -15 15 l0 15 -30 0 -30 0 0 15
c0 8 -7 15 -15 15 -8 0 -15 7 -15 15 l0 15 -30 0 -30 0 0 15 c0 8 -7 15 -15
15 -8 0 -15 7 -15 15 l0 15 -30 0 -30 0 0 15 c0 8 -7 15 -15 15 -8 0 -15 7
-15 15 l0 15 -30 0 -30 0 0 15 c0 8 -7 15 -15 15 -8 0 -15 7 -15 15 l0 15 -30
0 -30 0 0 15 c0 8 -7 15 -15 15 -8 0 -15 7 -15 15 l0 15 -30 0 -30 0 0 15 c0
8 -7 15 -15 15 -8 0 -15 7 -15 15 l0 15 -30 0 -30 0 0 15 c0 8 -7 15 -15 15
-8 0 -15 7 -15 15 l0 15 -30 0 -30 0 0 15 c0 8 -7 15 -15 15 -8 0 -15 7 -15
15 l0 15 -30 0 -30 0 0 15 c0 8 -7 15 -15 15 -8 0 -15 7 -15 15 l0 15 -30 0
-30 0 0 15 c0 8 -7 15 -15 15 -8 0 -15 7 -15 15 0 8 -7 15 -15 15 -8 0 -15 7
-15 15 l0 15 -30 0 -30 0 0 15 c0 8 -7 15 -15 15 -8 0 -15 7 -15 15 l0 15 -30
0 -30 0 0 15 c0 8 -7 15 -15 15 -8 0 -15 7 -15 15 l0 15 -30 0 -30 0 0 15 c0
8 -7 15 -15 15 -8 0 -15 7 -15 15 l0 15 -30 0 -30 0 0 15 c0 8 -7 15 -15 15
-8 0 -15 7 -15 15 l0 15 -30 0 -30 0 0 15 c0 8 -7 15 -15 15 -8 0 -15 7 -15
15 l0 15 -30 0 -30 0 0 15 c0 8 -7 15 -15 15 -8 0 -15 7 -15 15 l0 15 -30 0
-30 0 0 15 c0 8 -7 15 -15 15 -8 0 -15 7 -15 15 0 8 -7 15 -15 15 l-15 0 0
-1890z"/>
</g>
  </g></g>
</svg>