<svg width="1044" height="753" viewBox="0 0 1044 753" xmlns="http://www.w3.org/2000/svg" role="img" aria-label="Llamafolio">
<rect width="1044" height="753" rx="48" fill="#0A1322"/>
<g transform="translate(312.0,80) scale(0.42000)"><g transform="translate(0,0) scale(1.0)"><g transform="translate(500,500) scale(0.56818) translate(-643.50,-792.00)">
    <g transform="translate(0.000000,1584.000000) scale(0.100000,-0.100000)"
fill="#FAFAFA" stroke="none">
<path d="M9090 15225 c0 -8 -7 -15 -15 -15 -8 0 -15 -7 -15 -15 0 -8 -7 -15
-15 -15 -8 0 -15 -7 -15 -15 0 -8 -7 -15 -15 -15 -8 0 -15 -7 -15 -15 0 -8 -7
-15 -15 -15 -8 0 -15 -7 -15 -15 0 -8 -7 -15 -15 -15 -8 0 -15 -7 -15 -15 0
-8 -7 -15 -15 -15 -8 0 -15 -7 -15 -15 0 -8 -7 -15 -15 -15 -8 0 -15 -7 -15
-15 0 -8 -7 -15 -15 -15 -8 0 -15 -7 -15 -15 l0 -15 -30 0 -30 0 0 -15 c0 -8
-7 -15 -15 -15 -8 0 -15 -7 -15 -15 0 -8 -7 -15 -15 -15 -8 0 -15 -7 -15 -15
0 -8 -7 -15 -15 -15 -8 0 -15 -7 -15 -15 0 -8 -7 -15 -15 -15 -8 0 -15 -7 -15
-15 0 -8 -7 -15 -15 -15 -8 0 -15 -7 -15 -15 0 -8 -7 -15 -15 -15 -8 0 -15 -7
-15 -15 0 -8 -7 -15 -15 -15 -8 0 -15 -7 -15 -15 0 -8 -7 -15 -15 -15 -8 0
-15 -7 -15 -15 0 -8 -7 -15 -15 -15 -8 0 -15 -7 -15 -15 0 -8 -7 -15 -15 -15
-8 0 -15 -7 -15 -15 0 -8 -7 -15 -15 -15 -8 0 -15 -7 -15 -15 0 -8 -7 -15 -15
-15 -8 0 -15 -7 -15 -15 0 -8 -7 -15 -15 -15 -8 0 -15 -7 -15 -15 0 -8 -7 -15
-15 -15 -8 0 -15 -7 -15 -15 l0 -15 -30 0 -30 0 0 -15 c0 -8 -7 -15 -15 -15
l-15 0 0 -30 0 -30 -15 0 c-8 0 -15 -7 -15 -15 0 -8 -7 -15 -15 -15 l-15 0 0
-720 0 -720 15 0 c8 0 15 7 15 15 0 8 7 15 15 15 8 0 15 7 15 15 0 8 7 15 15
15 8 0 15 7 15 15 0 8 7 15 15 15 8 0 15 7 15 15 0 8 7 15 15 15 8 0 15 7 15
15 0 8 7 15 15 15 8 0 15 7 15 15 0 8 7 15 15 15 8 0 15 7 15 15 0 8 7 15 15
15 8 0 15 7 15 15 0 8 7 15 15 15 8 0 15 7 15 15 0 8 7 15 15 15 8 0 15 7 15
15 0 8 7 15 15 15 8 0 15 7 15 15 0 8 7 15 15 15 8 0 15 7 15 15 0 8 7 15 15
15 8 0 15 7 15 15 0 8 7 15 15 15 8 0 15 7 15 15 0 8 7 15 15 15 l15 0 0 30 0
30 15 0 c8 0 15 7 15 15 0 8 7 15 15 15 8 0 15 7 15 15 0 8 7 15 15 15 8 0 15
7 15 15 0 8 7 15 15 15 8 0 15 7 15 15 0 8 7 15 15 15 8 0 15 7 15 15 0 8 7
15 15 15 8 0 15 7 15 15 0 8 7 15 15 15 8 0 15 7 15 15 0 8 7 15 15 15 8 0 15
7 15 15 0 8 7 15 15 15 8 0 15 7 15 15 0 8 7 15 15 15 8 0 15 7 15 15 0 8 7
15 15 15 8 0 15 7 15 15 0 8 7 15 15 15 8 0 15 7 15 15 0 8 7 15 15 15 8 0 15
7 15 15 0 8 7 15 15 15 8 0 15 7 15 15 0 8 7 15 15 15 l15 0 0 690 0 690 -15
0 c-8 0 -15 -7 -15 -15z"/>
<path d="M10380 15225 c0 -8 -7 -15 -15 -15 -8 0 -15 -7 -15 -15 0 -8 -7 -15
-15 -15 -8 0 -15 -7 -15 -15 0 -8 -7 -15 -15 -15 -8 0 -15 -7 -15 -15 0 -8 -7
-15 -15 -15 -8 0 -15 -7 -15 -15 l0 -15 -30 0 -30 0 0 -15 c0 -8 -7 -15 -15
-15 -8 0 -15 -7 -15 -15 0 -8 -7 -15 -15 -15 -8 0 -15 -7 -15 -15 0 -8 -7 -15
-15 -15 -8 0 -15 -7 -15 -15 0 -8 -7 -15 -15 -15 -8 0 -15 -7 -15 -15 0 -8 -7
-15 -15 -15 -8 0 -15 -7 -15 -15 0 -8 -7 -15 -15 -15 -8 0 -15 -7 -15 -15 0
-8 -7 -15 -15 -15 -8 0 -15 -7 -15 -15 0 -8 -7 -15 -15 -15 -8 0 -15 -7 -15
-15 0 -8 -7 -15 -15 -15 -8 0 -15 -7 -15 -15 0 -8 -7 -15 -15 -15 -8 0 -15 -7
-15 -15 l0 -15 -30 0 -30 0 0 -15 c0 -8 -7 -15 -15 -15 -8 0 -15 -7 -15 -15 0
-8 -7 -15 -15 -15 -8 0 -15 -7 -15 -15 0 -8 -7 -15 -15 -15 -8 0 -15 -7 -15
-15 0 -8 -7 -15 -15 -15 -8 0 -15 -7 -15 -15 0 -8 -7 -15 -15 -15 -8 0 -15 -7
-15 -15 0 -8 -7 -15 -15 -15 -8 0 -15 -7 -15 -15 0 -8 -7 -15 -15 -15 -8 0
-15 -7 -15 -15 0 -8 -7 -15 -15 -15 -8 0 -15 -7 -15 -15 0 -8 -7 -15 -15 -15
-8 0 -15 -7 -15 -15 0 -8 -7 -15 -15 -15 l-15 0 0 -180 0 -180 435 0 435 0 0
570 0 570 -15 0 c-8 0 -15 -7 -15 -15z"/>
<path d="M9510 13695 c0 -8 -7 -15 -15 -15 -8 0 -15 -7 -15 -15 0 -8 -7 -15
-15 -15 -8 0 -15 -7 -15 -15 0 -8 -7 -15 -15 -15 -8 0 -15 -7 -15 -15 0 -8 -7
-15 -15 -15 -8 0 -15 -7 -15 -15 0 -8 -7 -15 -15 -15 -8 0 -15 -7 -15 -15 0
-8 -7 -15 -15 -15 -8 0 -15 -7 -15 -15 0 -8 -7 -15 -15 -15 -8 0 -15 -7 -15
-15 0 -8 -7 -15 -15 -15 -8 0 -15 -7 -15 -15 0 -8 -7 -15 -15 -15 -8 0 -15 -7
-15 -15 0 -8 -7 -15 -15 -15 -8 0 -15 -7 -15 -15 0 -8 -7 -15 -15 -15 -8 0
-15 -7 -15 -15 0 -8 -7 -15 -15 -15 -8 0 -15 -7 -15 -15 0 -8 -7 -15 -15 -15
-8 0 -15 -7 -15 -15 0 -8 -7 -15 -15 -15 -8 0 -15 -7 -15 -15 0 -8 -7 -15 -15
-15 -8 0 -15 -7 -15 -15 0 -8 -7 -15 -15 -15 l-15 0 0 -30 0 -30 -15 0 c-8 0
-15 -7 -15 -15 0 -8 -7 -15 -15 -15 -8 0 -15 -7 -15 -15 0 -8 -7 -15 -15 -15
-8 0 -15 -7 -15 -15 0 -8 -7 -15 -15 -15 -8 0 -15 -7 -15 -15 0 -8 -7 -15 -15
-15 -8 0 -15 -7 -15 -15 0 -8 -7 -15 -15 -15 -8 0 -15 -7 -15 -15 0 -8 -7 -15
-15 -15 -8 0 -15 -7 -15 -15 0 -8 -7 -15 -15 -15 -8 0 -15 -7 -15 -15 0 -8 -7
-15 -15 -15 -8 0 -15 -7 -15 -15 0 -8 -7 -15 -15 -15 -8 0 -15 -7 -15 -15 0
-8 -7 -15 -15 -15 -8 0 -15 -7 -15 -15 0 -8 -7 -15 -15 -15 -8 0 -15 -7 -15
-15 0 -8 -7 -15 -15 -15 -8 0 -15 -7 -15 -15 0 -8 -7 -15 -15 -15 -8 0 -15 -7
-15 -15 0 -8 -7 -15 -15 -15 -8 0 -15 -7 -15 -15 0 -8 -7 -15 -15 -15 -8 0
-15 -7 -15 -15 0 -8 -7 -15 -15 -15 -8 0 -15 -7 -15 -15 0 -8 -7 -15 -15 -15
-8 0 -15 -7 -15 -15 0 -8 -7 -15 -15 -15 -8 0 -15 -7 -15 -15 0 -8 -7 -15 -15
-15 -8 0 -15 -7 -15 -15 0 -8 -7 -15 -15 -15 -8 0 -15 -7 -15 -15 0 -8 -7 -15
-15 -15 l-15 0 0 -30 0 -30 30 0 30 0 0 -15 c0 -8 7 -15 15 -15 8 0 15 -7 15
-15 l0 -15 30 0 30 0 0 -15 c0 -8 7 -15 15 -15 8 0 15 -7 15 -15 l0 -15 30 0
30 0 0 -15 c0 -8 7 -15 15 -15 8 0 15 -7 15 -15 l0 -15 30 0 30 0 0 -15 c0 -8
7 -15 15 -15 8 0 15 -7 15 -15 l0 -15 30 0 30 0 0 -15 c0 -8 7 -15 15 -15 8 0
15 -7 15 -15 l0 -15 30 0 30 0 0 -15 c0 -8 7 -15 15 -15 8 0 15 -7 15 -15 l0
-15 30 0 30 0 0 -15 c0 -8 7 -15 15 -15 8 0 15 -7 15 -15 l0 -15 30 0 30 0 0
-15 c0 -8 7 -15 15 -15 8 0 15 -7 15 -15 l0 -15 30 0 30 0 0 -15 c0 -8 7 -15
15 -15 8 0 15 -7 15 -15 0 -8 7 -15 15 -15 8 0 15 -7 15 -15 l0 -15 30 0 30 0
0 -15 0 -15 30 0 30 0 0 -15 c0 -8 7 -15 15 -15 8 0 15 -7 15 -15 l0 -15 30 0
30 0 0 -15 c0 -8 7 -15 15 -15 8 0 15 -7 15 -15 l0 -15 30 0 30 0 0 -15 c0 -8
7 -15 15 -15 8 0 15 -7 15 -15 l0 -15 30 0 30 0 0 -15 c0 -8 7 -15 15 -15 8 0
15 -7 15 -15 0 -8 7 -15 15 -15 8 0 15 -7 15 -15 l0 -15 30 0 30 0 0 -15 c0
-8 7 -15 15 -15 8 0 15 -7 15 -15 l0 -15 30 0 30 0 0 -15 0 -15 30 0 30 0 0
-15 c0 -8 7 -15 15 -15 8 0 15 -7 15 -15 l0 -15 30 0 30 0 0 -15 c0 -8 7 -15
15 -15 8 0 15 -7 15 -15 0 -8 7 -15 15 -15 8 0 15 -7 15 -15 l0 -15 30 0 30 0
0 -15 c0 -8 7 -15 15 -15 8 0 15 -7 15 -15 l0 -15 30 0 30 0 0 -15 c0 -8 7
-15 15 -15 8 0 15 -7 15 -15 l0 -15 30 0 30 0 0 -15 c0 -8 7 -15 15 -15 8 0
15 -7 15 -15 l0 -15 60 0 60 0 0 15 0 15 30 0 30 0 0 15 0 15 45 0 45 0 0 15
0 15 30 0 30 0 0 15 0 15 30 0 30 0 0 15 0 15 30 0 30 0 0 15 0 15 30 0 30 0
0 15 0 15 30 0 30 0 0 15 0 15 30 0 30 0 0 15 0 15 45 0 45 0 0 15 0 15 30 0
30 0 0 15 0 15 30 0 30 0 0 15 0 15 30 0 30 0 0 15 0 15 30 0 30 0 0 15 0 15
360 0 360 0 0 15 c0 8 7 15 15 15 8 0 15 7 15 15 0 8 7 15 15 15 8 0 15 7 15
15 0 8 7 15 15 15 8 0 15 7 15 15 0 8 7 15 15 15 8 0 15 7 15 15 0 8 7 15 15
15 8 0 15 7 15 15 0 8 7 15 15 15 8 0 15 7 15 15 0 8 7 15 15 15 8 0 15 7 15
15 0 8 7 15 15 15 8 0 15 7 15 15 0 8 7 15 15 15 8 0 15 7 15 15 0 8 7 15 15
15 8 0 15 7 15 15 0 8 7 15 15 15 l15 0 0 405 0 405 -45 0 -45 0 0 15 0 15
-45 0 -45 0 0 15 0 15 -30 0 -30 0 0 15 0 15 -45 0 -45 0 0 15 0 15 -45 0 -45
0 0 15 0 15 -30 0 -30 0 0 15 0 15 -45 0 -45 0 0 15 0 15 -30 0 -30 0 0 15 0
15 -45 0 -45 0 0 15 0 15 -45 0 -45 0 0 15 0 15 -45 0 -45 0 0 15 0 15 -30 0
-30 0 0 15 0 15 -30 0 -30 0 0 15 0 15 -30 0 -30 0 0 15 c0 8 -7 15 -15 15 -8
0 -15 7 -15 15 0 8 -7 15 -15 15 l-15 0 0 30 0 30 -15 0 c-8 0 -15 7 -15 15 0
8 -7 15 -15 15 l-15 0 0 30 0 30 -15 0 c-8 0 -15 7 -15 15 0 8 -7 15 -15 15
l-15 0 0 30 0 30 -15 0 c-8 0 -15 7 -15 15 0 8 -7 15 -15 15 -8 0 -15 7 -15
15 0 8 -7 15 -15 15 l-15 0 0 30 0 30 -15 0 c-8 0 -15 7 -15 15 0 8 -7 15 -15
15 l-15 0 0 30 0 30 -15 0 c-8 0 -15 7 -15 15 0 8 -7 15 -15 15 -8 0 -15 7
-15 15 l0 15 -30 0 -30 0 0 -15 0 -15 -540 0 -540 0 0 15 c0 8 -7 15 -15 15
-8 0 -15 -7 -15 -15 l0 -15 -30 0 -30 0 0 15 0 15 -45 0 -45 0 0 -15z"/>
<path d="M8190 12015 l0 -105 -15 0 -15 0 0 -150 0 -150 -15 0 -15 0 0 -150 0
-150 -15 0 -15 0 0 -150 0 -150 -15 0 -15 0 0 -135 0 -135 -15 0 -15 0 0 -165
0 -165 -15 0 -15 0 0 -135 0 -135 -15 0 -15 0 0 -165 0 -165 -15 0 -15 0 0
-150 0 -150 -15 0 -15 0 0 -150 0 -150 -15 0 -15 0 0 -135 0 -135 -15 0 -15 0
0 -150 0 -150 -15 0 c-8 0 -15 -7 -15 -15 0 -8 7 -15 15 -15 8 0 15 -7 15 -15
0 -8 7 -15 15 -15 8 0 15 -7 15 -15 l0 -15 30 0 30 0 0 -15 c0 -8 7 -15 15
-15 8 0 15 -7 15 -15 l0 -15 30 0 30 0 0 -15 c0 -8 7 -15 15 -15 8 0 15 -7 15
-15 0 -8 7 -15 15 -15 8 0 15 -7 15 -15 l0 -15 30 0 30 0 0 -15 c0 -8 7 -15
15 -15 8 0 15 -7 15 -15 l0 -15 30 0 30 0 0 -15 c0 -8 7 -15 15 -15 8 0 15 -7
15 -15 l0 -15 30 0 30 0 0 -15 c0 -8 7 -15 15 -15 8 0 15 -7 15 -15 l0 -15 30
0 30 0 0 -15 c0 -8 7 -15 15 -15 8 0 15 -7 15 -15 l0 -15 30 0 30 0 0 -15 c0
-8 7 -15 15 -15 8 0 15 -7 15 -15 l0 -15 30 0 30 0 0 -15 c0 -8 7 -15 15 -15
8 0 15 -7 15 -15 l0 -15 30 0 30 0 0 -15 c0 -8 7 -15 15 -15 8 0 15 -7 15 -15
l0 -15 30 0 30 0 0 -15 c0 -8 7 -15 15 -15 8 0 15 -7 15 -15 l0 -15 30 0 30 0
0 -15 c0 -8 7 -15 15 -15 8 0 15 -7 15 -15 l0 -15 30 0 30 0 0 -15 c0 -8 7
-15 15 -15 8 0 15 -7 15 -15 0 -8 7 -15 15 -15 8 0 15 -7 15 -15 l0 -15 30 0
30 0 0 -15 c0 -8 7 -15 15 -15 8 0 15 -7 15 -15 l0 -15 30 0 30 0 0 -15 c0 -8
7 -15 15 -15 8 0 15 -7 15 -15 l0 -15 30 0 30 0 0 -15 c0 -8 7 -15 15 -15 8 0
15 -7 15 -15 l0 -15 30 0 30 0 0 -15 0 -15 30 0 30 0 0 -15 c0 -8 7 -15 15
-15 8 0 15 -7 15 -15 0 -8 7 -15 15 -15 8 0 15 -7 15 -15 l0 -15 30 0 30 0 0
-15 c0 -8 7 -15 15 -15 8 0 15 -7 15 -15 l0 -15 30 0 30 0 0 -15 c0 -8 7 -15
15 -15 8 0 15 -7 15 -15 l0 -15 30 0 30 0 0 -15 c0 -8 7 -15 15 -15 8 0 15 -7
15 -15 l0 -15 30 0 30 0 0 -15 c0 -8 7 -15 15 -15 8 0 15 -7 15 -15 l0 -15 30
0 30 0 0 -15 c0 -8 7 -15 15 -15 8 0 15 -7 15 -15 l0 -15 30 0 30 0 0 -15 c0
-8 7 -15 15 -15 8 0 15 -7 15 -15 0 -8 7 -15 15 -15 8 0 15 -7 15 -15 l0 -15
30 0 30 0 0 -15 c0 -8 7 -15 15 -15 8 0 15 -7 15 -15 l0 -15 30 0 30 0 0 -15
c0 -8 7 -15 15 -15 8 0 15 -7 15 -15 l0 -15 30 0 30 0 0 -15 c0 -8 7 -15 15
-15 8 0 15 -7 15 -15 l0 -15 30 0 30 0 0 -15 c0 -8 7 -15 15 -15 8 0 15 -7 15
-15 l0 -15 30 0 30 0 0 -15 c0 -8 7 -15 15 -15 8 0 15 -7 15 -15 l0 -15 30 0
30 0 0 -15 c0 -8 7 -15 15 -15 8 0 15 -7 15 -15 l0 -15 30 0 30 0 0 -15 c0 -8
7 -15 15 -15 8 0 15 -7 15 -15 l0 -15 30 0 30 0 0 -15 c0 -8 7 -15 15 -15 8 0
15 -7 15 -15 l0 -15 30 0 30 0 0 -15 c0 -8 7 -15 15 -15 8 0 15 -7 15 -15 l0
-15 30 0 30 0 0 -15 c0 -8 7 -15 15 -15 8 0 15 -7 15 -15 0 -8 7 -15 15 -15 8
0 15 -7 15 -15 l0 -15 30 0 30 0 0 -15 c0 -8 7 -15 15 -15 8 0 15 -7 15 -15
l0 -15 30 0 30 0 0 -15 c0 -8 7 -15 15 -15 8 0 15 -7 15 -15 l0 -15 30 0 30 0
0 -15 c0 -8 7 -15 15 -15 8 0 15 -7 15 -15 0 -8 7 -15 15 -15 l15 0 0 30 0 30
-15 0 -15 0 0 90 0 90 -15 0 -15 0 0 90 0 90 -15 0 -15 0 0 75 0 75 -15 0 -15
0 0 90 0 90 -15 0 -15 0 0 75 0 75 -15 0 -15 0 0 90 0 90 -15 0 -15 0 0 75 0
75 -15 0 -15 0 0 90 0 90 -15 0 -15 0 0 75 0 75 -15 0 -15 0 0 90 0 90 -15 0
-15 0 0 75 0 75 -15 0 -15 0 0 90 0 90 -15 0 -15 0 0 90 0 90 -15 0 -15 0 0
75 0 75 -15 0 -15 0 0 90 0 90 -15 0 -15 0 0 75 0 75 -15 0 -15 0 0 90 0 90
-15 0 -15 0 0 75 0 75 -15 0 -15 0 0 90 0 90 -15 0 -15 0 0 75 0 75 -15 0 -15
0 0 90 0 90 -15 0 -15 0 0 75 0 75 -15 0 -15 0 0 90 0 90 -15 0 -15 0 0 90 0
90 -15 0 -15 0 0 75 0 75 -15 0 -15 0 0 45 0 45 -15 0 c-8 0 -15 7 -15 15 l0
15 -30 0 -30 0 0 15 c0 8 -7 15 -15 15 -8 0 -15 7 -15 15 l0 15 -30 0 -30 0 0
15 c0 8 -7 15 -15 15 -8 0 -15 7 -15 15 l0 15 -30 0 -30 0 0 15 c0 8 -7 15
-15 15 -8 0 -15 7 -15 15 l0 15 -30 0 -30 0 0 15 c0 8 -7 15 -15 15 -8 0 -15
7 -15 15 0 8 -7 15 -15 15 -8 0 -15 7 -15 15 l0 15 -30 0 -30 0 0 15 c0 8 -7
15 -15 15 -8 0 -15 7 -15 15 l0 15 -30 0 -30 0 0 15 c0 8 -7 15 -15 15 -8 0
-15 7 -15 15 l0 15 -30 0 -30 0 0 15 c0 8 -7 15 -15 15 -8 0 -15 7 -15 15 l0
15 -30 0 -30 0 0 15 c0 8 -7 15 -15 15 -8 0 -15 7 -15 15 l0 15 -30 0 -30 0 0
15 c0 8 -7 15 -15 15 -8 0 -15 7 -15 15 l0 15 -30 0 -30 0 0 15 c0 8 -7 15
-15 15 -8 0 -15 7 -15 15 l0 15 -30 0 -30 0 0 15 c0 8 -7 15 -15 15 -8 0 -15
7 -15 15 0 8 -7 15 -15 15 -8 0 -15 7 -15 15 l0 15 -30 0 -30 0 0 15 c0 8 -7
15 -15 15 -8 0 -15 7 -15 15 l0 15 -30 0 -30 0 0 15 0 15 -30 0 -30 0 0 15 c0
8 -7 15 -15 15 -8 0 -15 7 -15 15 l0 15 -30 0 -30 0 0 15 c0 8 -7 15 -15 15
-8 0 -15 7 -15 15 l0 15 -30 0 -30 0 0 15 c0 8 -7 15 -15 15 -8 0 -15 7 -15
15 l0 15 -30 0 -30 0 0 15 c0 8 -7 15 -15 15 -8 0 -15 7 -15 15 0 8 -7 15 -15
15 -8 0 -15 7 -15 15 l0 15 -30 0 -30 0 0 15 c0 8 -7 15 -15 15 -8 0 -15 7
-15 15 l0 15 -30 0 -30 0 0 15 c0 8 -7 15 -15 15 -8 0 -15 7 -15 15 l0 15 -30
0 -30 0 0 15 c0 8 -7 15 -15 15 -8 0 -15 7 -15 15 l0 15 -30 0 -30 0 0 15 c0
8 -7 15 -15 15 -8 0 -15 7 -15 15 l0 15 -30 0 -30 0 0 15 c0 8 -7 15 -15 15
-8 0 -15 7 -15 15 l0 15 -30 0 -30 0 0 15 c0 8 -7 15 -15 15 -8 0 -15 7 -15
15 l0 15 -30 0 -30 0 0 15 c0 8 -7 15 -15 15 -8 0 -15 7 -15 15 l0 15 -30 0
-30 0 0 -105z"/>
<path d="M1470 8325 c0 -8 -7 -15 -15 -15 -8 0 -15 -7 -15 -15 0 -8 -7 -15
-15 -15 -8 0 -15 -7 -15 -15 0 -8 -7 -15 -15 -15 -8 0 -15 -7 -15 -15 0 -8 -7
-15 -15 -15 -8 0 -15 -7 -15 -15 0 -8 -7 -15 -15 -15 -8 0 -15 -7 -15 -15 0
-8 -7 -15 -15 -15 -8 0 -15 -7 -15 -15 0 -8 -7 -15 -15 -15 -8 0 -15 -7 -15
-15 0 -8 -7 -15 -15 -15 -8 0 -15 -7 -15 -15 0 -8 -7 -15 -15 -15 -8 0 -15 -7
-15 -15 0 -8 -7 -15 -15 -15 -8 0 -15 -7 -15 -15 0 -8 -7 -15 -15 -15 -8 0
-15 -7 -15 -15 0 -8 -7 -15 -15 -15 -8 0 -15 -7 -15 -15 0 -8 -7 -15 -15 -15
-8 0 -15 -7 -15 -15 0 -8 -7 -15 -15 -15 -8 0 -15 -7 -15 -15 0 -8 -7 -15 -15
-15 -8 0 -15 -7 -15 -15 0 -8 -7 -15 -15 -15 -8 0 -15 -7 -15 -15 0 -8 -7 -15
-15 -15 -8 0 -15 -7 -15 -15 0 -8 -7 -15 -15 -15 -8 0 -15 -7 -15 -15 0 -8 -7
-15 -15 -15 -8 0 -15 -7 -15 -15 0 -8 -7 -15 -15 -15 -8 0 -15 -7 -15 -15 0
-8 -7 -15 -15 -15 -8 0 -15 -7 -15 -15 0 -8 -7 -15 -15 -15 -8 0 -15 -7 -15
-15 0 -8 -7 -15 -15 -15 -8 0 -15 -7 -15 -15 0 -8 -7 -15 -15 -15 -8 0 -15 -7
-15 -15 0 -8 -7 -15 -15 -15 -8 0 -15 -7 -15 -15 0 -8 -7 -15 -15 -15 -8 0
-15 -7 -15 -15 0 -8 -7 -15 -15 -15 -8 0 -15 -7 -15 -15 0 -8 -7 -15 -15 -15
-8 0 -15 -7 -15 -15 0 -8 -7 -15 -15 -15 l-15 0 0 -645 0 -645 390 0 390 0 0
330 0 330 15 0 c8 0 15 7 15 15 0 8 7 15 15 15 8 0 15 7 15 15 0 8 7 15 15 15
8 0 15 7 15 15 0 8 7 15 15 15 8 0 15 7 15 15 0 8 7 15 15 15 8 0 15 7 15 15
0 8 7 15 15 15 l15 0 0 30 0 30 15 0 c8 0 15 7 15 15 0 8 7 15 15 15 8 0 15 7
15 15 0 8 7 15 15 15 8 0 15 7 15 15 0 8 7 15 15 15 8 0 15 7 15 15 0 8 7 15
15 15 8 0 15 7 15 15 0 8 7 15 15 15 8 0 15 7 15 15 0 8 7 15 15 15 8 0 15 7
15 15 0 8 7 15 15 15 8 0 15 7 15 15 0 8 7 15 15 15 8 0 15 7 15 15 0 8 7 15
15 15 8 0 15 7 15 15 0 8 7 15 15 15 8 0 15 7 15 15 0 8 7 15 15 15 8 0 15 7
15 15 0 8 7 15 15 15 8 0 15 7 15 15 0 8 7 15 15 15 8 0 15 7 15 15 0 8 7 15
15 15 8 0 15 7 15 15 0 8 7 15 15 15 8 0 15 7 15 15 0 8 7 15 15 15 8 0 15 7
15 15 0 8 7 15 15 15 8 0 15 7 15 15 0 8 7 15 15 15 8 0 15 7 15 15 0 8 7 15
15 15 8 0 15 7 15 15 0 8 7 15 15 15 8 0 15 7 15 15 0 8 7 15 15 15 8 0 15 7
15 15 0 8 7 15 15 15 8 0 15 7 15 15 0 8 7 15 15 15 8 0 15 7 15 15 0 8 7 15
15 15 8 0 15 7 15 15 0 8 7 15 15 15 8 0 15 7 15 15 0 8 7 15 15 15 8 0 15 7
15 15 0 8 7 15 15 15 8 0 15 7 15 15 0 8 7 15 15 15 8 0 15 7 15 15 0 8 7 15
15 15 8 0 15 7 15 15 0 8 7 15 15 15 8 0 15 7 15 15 0 8 7 15 15 15 8 0 15 7
15 15 0 8 7 15 15 15 8 0 15 7 15 15 0 8 7 15 15 15 8 0 15 7 15 15 0 8 7 15
15 15 8 0 15 7 15 15 0 8 7 15 15 15 8 0 15 7 15 15 0 8 7 15 15 15 8 0 15 7
15 15 0 8 7 15 15 15 8 0 15 7 15 15 0 8 7 15 15 15 l15 0 0 30 0 30 15 0 c8
0 15 7 15 15 l0 15 30 0 30 0 0 30 0 30 -675 0 -675 0 0 -15z"/>
<path d="M3390 8325 c0 -8 -7 -15 -15 -15 -8 0 -15 -7 -15 -15 0 -8 -7 -15
-15 -15 -8 0 -15 -7 -15 -15 0 -8 -7 -15 -15 -15 -8 0 -15 -7 -15 -15 0 -8 -7
-15 -15 -15 -8 0 -15 -7 -15 -15 0 -8 -7 -15 -15 -15 -8 0 -15 -7 -15 -15 0
-8 -7 -15 -15 -15 -8 0 -15 -7 -15 -15 0 -8 -7 -15 -15 -15 -8 0 -15 -7 -15
-15 0 -8 -7 -15 -15 -15 -8 0 -15 -7 -15 -15 0 -8 -7 -15 -15 -15 -8 0 -15 -7
-15 -15 0 -8 -7 -15 -15 -15 -8 0 -15 -7 -15 -15 0 -8 -7 -15 -15 -15 -8 0
-15 -7 -15 -15 0 -8 -7 -15 -15 -15 -8 0 -15 -7 -15 -15 0 -8 -7 -15 -15 -15
-8 0 -15 -7 -15 -15 0 -8 -7 -15 -15 -15 -8 0 -15 -7 -15 -15 0 -8 -7 -15 -15
-15 -8 0 -15 -7 -15 -15 0 -8 -7 -15 -15 -15 -8 0 -15 -7 -15 -15 0 -8 -7 -15
-15 -15 -8 0 -15 -7 -15 -15 0 -8 -7 -15 -15 -15 -8 0 -15 -7 -15 -15 0 -8 -7
-15 -15 -15 -8 0 -15 -7 -15 -15 0 -8 -7 -15 -15 -15 l-15 0 0 -30 0 -30 -15
0 c-8 0 -15 -7 -15 -15 0 -8 -7 -15 -15 -15 -8 0 -15 -7 -15 -15 0 -8 -7 -15
-15 -15 -8 0 -15 -7 -15 -15 0 -8 -7 -15 -15 -15 -8 0 -15 -7 -15 -15 0 -8 -7
-15 -15 -15 -8 0 -15 -7 -15 -15 0 -8 -7 -15 -15 -15 -8 0 -15 -7 -15 -15 0
-8 -7 -15 -15 -15 -8 0 -15 -7 -15 -15 0 -8 -7 -15 -15 -15 -8 0 -15 -7 -15
-15 0 -8 -7 -15 -15 -15 -8 0 -15 -7 -15 -15 0 -8 -7 -15 -15 -15 -8 0 -15 -7
-15 -15 0 -8 -7 -15 -15 -15 -8 0 -15 -7 -15 -15 0 -8 -7 -15 -15 -15 -8 0
-15 -7 -15 -15 0 -8 -7 -15 -15 -15 -8 0 -15 -7 -15 -15 0 -8 -7 -15 -15 -15
-8 0 -15 -7 -15 -15 0 -8 -7 -15 -15 -15 -8 0 -15 -7 -15 -15 0 -8 -7 -15 -15
-15 -8 0 -15 -7 -15 -15 0 -8 -7 -15 -15 -15 -8 0 -15 -7 -15 -15 0 -8 -7 -15
-15 -15 -8 0 -15 -7 -15 -15 0 -8 -7 -15 -15 -15 -8 0 -15 -7 -15 -15 0 -8 -7
-15 -15 -15 -8 0 -15 -7 -15 -15 0 -8 -7 -15 -15 -15 -8 0 -15 -7 -15 -15 0
-8 -7 -15 -15 -15 -8 0 -15 -7 -15 -15 0 -8 -7 -15 -15 -15 -8 0 -15 -7 -15
-15 0 -8 -7 -15 -15 -15 -8 0 -15 -7 -15 -15 0 -8 -7 -15 -15 -15 -8 0 -15 -7
-15 -15 0 -8 -7 -15 -15 -15 -8 0 -15 -7 -15 -15 0 -8 -7 -15 -15 -15 -8 0
-15 -7 -15 -15 0 -8 -7 -15 -15 -15 -8 0 -15 -7 -15 -15 0 -8 -7 -15 -15 -15
-8 0 -15 -7 -15 -15 0 -8 -7 -15 -15 -15 -8 0 -15 -7 -15 -15 0 -8 -7 -15 -15
-15 -8 0 -15 -7 -15 -15 0 -8 -7 -15 -15 -15 -8 0 -15 -7 -15 -15 0 -8 -7 -15
-15 -15 l-15 0 0 -1230 0 -1230 15 0 c8 0 15 7 15 15 0 8 7 15 15 15 8 0 15 7
15 15 0 8 7 15 15 15 8 0 15 7 15 15 l0 15 30 0 30 0 0 15 c0 8 7 15 15 15 8
0 15 7 15 15 0 8 7 15 15 15 8 0 15 7 15 15 l0 15 30 0 30 0 0 15 c0 8 7 15
15 15 8 0 15 7 15 15 0 8 7 15 15 15 8 0 15 7 15 15 0 8 7 15 15 15 8 0 15 7
15 15 l0 15 30 0 30 0 0 15 c0 8 7 15 15 15 8 0 15 7 15 15 0 8 7 15 15 15 8
0 15 7 15 15 l0 15 30 0 30 0 0 15 c0 8 7 15 15 15 8 0 15 7 15 15 0 8 7 15
15 15 8 0 15 7 15 15 0 8 7 15 15 15 8 0 15 7 15 15 l0 15 30 0 30 0 0 15 c0
8 7 15 15 15 8 0 15 7 15 15 0 8 7 15 15 15 8 0 15 7 15 15 l0 15 30 0 30 0 0
15 c0 8 7 15 15 15 8 0 15 7 15 15 0 8 7 15 15 15 8 0 15 7 15 15 l0 15 30 0
30 0 0 15 c0 8 7 15 15 15 8 0 15 7 15 15 0 8 7 15 15 15 8 0 15 7 15 15 0 8
7 15 15 15 8 0 15 7 15 15 l0 15 30 0 30 0 0 15 c0 8 7 15 15 15 8 0 15 7 15
15 0 8 7 15 15 15 8 0 15 7 15 15 l0 15 30 0 30 0 0 15 c0 8 7 15 15 15 8 0
15 7 15 15 0 8 7 15 15 15 8 0 15 7 15 15 0 8 7 15 15 15 8 0 15 7 15 15 l0
15 30 0 30 0 0 15 c0 8 7 15 15 15 8 0 15 7 15 15 0 8 7 15 15 15 8 0 15 7 15
15 l0 15 30 0 30 0 0 15 c0 8 7 15 15 15 8 0 15 7 15 15 0 8 7 15 15 15 8 0
15 7 15 15 0 8 7 15 15 15 8 0 15 7 15 15 l0 15 30 0 30 0 0 15 c0 8 7 15 15
15 8 0 15 7 15 15 0 8 7 15 15 15 8 0 15 7 15 15 l0 15 30 0 30 0 0 15 c0 8 7
15 15 15 8 0 15 7 15 15 0 8 7 15 15 15 8 0 15 7 15 15 l0 15 30 0 30 0 0 15
c0 8 7 15 15 15 8 0 15 7 15 15 0 8 7 15 15 15 8 0 15 7 15 15 l0 15 30 0 30
0 0 15 c0 8 7 15 15 15 8 0 15 7 15 15 0 8 7 15 15 15 8 0 15 7 15 15 0 8 7
15 15 15 8 0 15 7 15 15 l0 15 30 0 30 0 0 15 c0 8 7 15 15 15 8 0 15 7 15 15
0 8 7 15 15 15 8 0 15 7 15 15 0 8 7 15 15 15 8 0 15 7 15 15 l0 15 30 0 30 0
0 15 c0 8 7 15 15 15 8 0 15 7 15 15 0 8 7 15 15 15 8 0 15 7 15 15 l0 15 30
0 30 0 0 15 c0 8 7 15 15 15 8 0 15 7 15 15 0 8 7 15 15 15 8 0 15 7 15 15 0
8 7 15 15 15 8 0 15 7 15 15 l0 15 30 0 30 0 0 15 c0 8 7 15 15 15 8 0 15 7
15 15 0 8 7 15 15 15 8 0 15 7 15 15 l0 15 30 0 30 0 0 15 c0 8 7 15 15 15 8
0 15 7 15 15 0 8 7 15 15 15 8 0 15 7 15 15 0 8 7 15 15 15 8 0 15 7 15 15 l0
15 30 0 30 0 0 15 c0 8 7 15 15 15 8 0 15 7 15 15 0 8 7 15 15 15 8 0 15 7 15
15 0 8 7 15 15 15 8 0 15 7 15 15 l0 15 30 0 30 0 0 15 c0 8 7 15 15 15 8 0
15 7 15 15 0 8 7 15 15 15 8 0 15 7 15 15 l0 15 30 0 30 0 0 15 c0 8 7 15 15
15 8 0 15 7 15 15 0 8 7 15 15 15 8 0 15 7 15 15 l0 15 30 0 30 0 0 15 c0 8 7
15 15 15 8 0 15 7 15 15 0 8 7 15 15 15 8 0 15 7 15 15 0 8 7 15 15 15 8 0 15
7 15 15 l0 15 30 0 30 0 0 15 c0 8 7 15 15 15 8 0 15 7 15 15 0 8 7 15 15 15
8 0 15 7 15 15 l0 15 30 0 30 0 0 15 c0 8 7 15 15 15 8 0 15 7 15 15 0 8 7 15
15 15 8 0 15 7 15 15 0 8 7 15 15 15 8 0 15 7 15 15 l0 15 30 0 30 0 0 15 c0
8 7 15 15 15 8 0 15 7 15 15 0 8 7 15 15 15 8 0 15 7 15 15 l0 15 30 0 30 0 0
15 c0 8 7 15 15 15 8 0 15 7 15 15 0 8 7 15 15 15 8 0 15 7 15 15 l0 15 30 0
30 0 0 15 c0 8 7 15 15 15 8 0 15 7 15 15 0 8 7 15 15 15 8 0 15 7 15 15 0 8
7 15 15 15 8 0 15 7 15 15 l0 15 30 0 30 0 0 15 c0 8 7 15 15 15 8 0 15 7 15
15 0 8 7 15 15 15 8 0 15 7 15 15 l0 15 30 0 30 0 0 15 c0 8 7 15 15 15 8 0
15 7 15 15 0 8 7 15 15 15 8 0 15 7 15 15 0 8 7 15 15 15 8 0 15 7 15 15 l0
15 30 0 30 0 0 15 c0 8 7 15 15 15 8 0 15 7 15 15 0 8 7 15 15 15 8 0 15 7 15
15 0 8 7 15 15 15 8 0 15 7 15 15 l0 15 30 0 30 0 0 15 c0 8 7 15 15 15 8 0
15 7 15 15 0 8 7 15 15 15 8 0 15 7 15 15 l0 15 30 0 30 0 0 15 c0 8 7 15 15
15 8 0 15 7 15 15 0 8 7 15 15 15 8 0 15 7 15 15 l0 15 30 0 30 0 0 15 c0 8 7
15 15 15 8 0 15 7 15 15 0 8 7 15 15 15 8 0 15 7 15 15 l0 15 30 0 30 0 0 15
c0 8 7 15 15 15 8 0 15 7 15 15 0 8 7 15 15 15 8 0 15 7 15 15 0 8 7 15 15 15
8 0 15 7 15 15 l0 15 30 0 30 0 0 15 c0 8 7 15 15 15 8 0 15 7 15 15 0 8 7 15
15 15 8 0 15 7 15 15 l0 15 30 0 30 0 0 15 c0 8 7 15 15 15 8 0 15 7 15 15 0
8 7 15 15 15 8 0 15 7 15 15 l0 15 30 0 30 0 0 15 c0 8 7 15 15 15 8 0 15 7
15 15 0 8 7 15 15 15 8 0 15 7 15 15 l0 15 -1830 0 -1830 0 0 -15z"/>
<path d="M7590 8235 c0 -8 -7 -15 -15 -15 -8 0 -15 -7 -15 -15 0 -8 -7 -15
-15 -15 -8 0 -15 -7 -15 -15 l0 -15 -30 0 -30 0 0 -15 c0 -8 -7 -15 -15 -15
-8 0 -15 -7 -15 -15 0 -8 -7 -15 -15 -15 -8 0 -15 -7 -15 -15 l0 -15 -30 0
-30 0 0 -15 c0 -8 -7 -15 -15 -15 -8 0 -15 -7 -15 -15 0 -8 -7 -15 -15 -15 -8
0 -15 -7 -15 -15 l0 -15 -30 0 -30 0 0 -15 c0 -8 -7 -15 -15 -15 -8 0 -15 -7
-15 -15 0 -8 -7 -15 -15 -15 -8 0 -15 -7 -15 -15 0 -8 -7 -15 -15 -15 -8 0
-15 -7 -15 -15 l0 -15 -30 0 -30 0 0 -15 c0 -8 -7 -15 -15 -15 -8 0 -15 -7
-15 -15 0 -8 -7 -15 -15 -15 -8 0 -15 -7 -15 -15 l0 -15 -30 0 -30 0 0 -15 c0
-8 -7 -15 -15 -15 -8 0 -15 -7 -15 -15 0 -8 -7 -15 -15 -15 -8 0 -15 -7 -15
-15 l0 -15 -30 0 -30 0 0 -15 c0 -8 -7 -15 -15 -15 -8 0 -15 -7 -15 -15 0 -8
-7 -15 -15 -15 -8 0 -15 -7 -15 -15 0 -8 -7 -15 -15 -15 -8 0 -15 -7 -15 -15
l0 -15 -30 0 -30 0 0 -15 c0 -8 -7 -15 -15 -15 -8 0 -15 -7 -15 -15 0 -8 -7
-15 -15 -15 -8 0 -15 -7 -15 -15 0 -8 -7 -15 -15 -15 -8 0 -15 -7 -15 -15 l0
-15 -30 0 -30 0 0 -15 c0 -8 -7 -15 -15 -15 -8 0 -15 -7 -15 -15 0 -8 -7 -15
-15 -15 -8 0 -15 -7 -15 -15 l0 -15 -30 0 -30 0 0 -15 c0 -8 -7 -15 -15 -15
-8 0 -15 -7 -15 -15 0 -8 -7 -15 -15 -15 -8 0 -15 -7 -15 -15 l0 -15 -30 0
-30 0 0 -15 c0 -8 -7 -15 -15 -15 -8 0 -15 -7 -15 -15 0 -8 -7 -15 -15 -15 -8
0 -15 -7 -15 -15 0 -8 -7 -15 -15 -15 -8 0 -15 -7 -15 -15 l0 -15 -30 0 -30 0
0 -15 c0 -8 -7 -15 -15 -15 -8 0 -15 -7 -15 -15 0 -8 -7 -15 -15 -15 -8 0 -15
-7 -15 -15 l0 -15 -30 0 -30 0 0 -15 c0 -8 -7 -15 -15 -15 -8 0 -15 -7 -15
-15 0 -8 -7 -15 -15 -15 -8 0 -15 -7 -15 -15 l0 -15 -30 0 -30 0 0 -15 c0 -8
-7 -15 -15 -15 -8 0 -15 -7 -15 -15 0 -8 -7 -15 -15 -15 -8 0 -15 -7 -15 -15
0 -8 -7 -15 -15 -15 -8 0 -15 -7 -15 -15 l0 -15 -30 0 -30 0 0 -15 c0 -8 -7
-15 -15 -15 -8 0 -15 -7 -15 -15 0 -8 -7 -15 -15 -15 -8 0 -15 -7 -15 -15 l0
-15 -30 0 -30 0 0 -15 c0 -8 -7 -15 -15 -15 -8 0 -15 -7 -15 -15 0 -8 -7 -15
-15 -15 -8 0 -15 -7 -15 -15 l0 -15 -30 0 -30 0 0 -15 c0 -8 -7 -15 -15 -15
-8 0 -15 -7 -15 -15 0 -8 -7 -15 -15 -15 -8 0 -15 -7 -15 -15 0 -8 -7 -15 -15
-15 -8 0 -15 -7 -15 -15 l0 -15 -30 0 -30 0 0 -15 c0 -8 -7 -15 -15 -15 -8 0
-15 -7 -15 -15 0 -8 -7 -15 -15 -15 -8 0 -15 -7 -15 -15 0 -8 -7 -15 -15 -15
-8 0 -15 -7 -15 -15 l0 -15 -30 0 -30 0 0 -15 c0 -8 -7 -15 -15 -15 -8 0 -15
-7 -15 -15 0 -8 -7 -15 -15 -15 -8 0 -15 -7 -15 -15 0 -8 -7 -15 -15 -15 -8 0
-15 -7 -15 -15 l0 -15 -30 0 -30 0 0 -15 c0 -8 -7 -15 -15 -15 -8 0 -15 -7
-15 -15 l0 -15 -30 0 -30 0 0 -30 0 -30 -15 0 -15 0 0 -225 0 -225 15 0 15 0
0 -285 0 -285 -15 0 -15 0 0 -45 0 -45 15 0 15 0 0 -75 0 -75 -15 0 c-8 0 -15
-7 -15 -15 0 -8 7 -15 15 -15 l15 0 0 -30 0 -30 -15 0 c-8 0 -15 -7 -15 -15 0
-8 7 -15 15 -15 l15 0 0 -30 0 -30 -15 0 c-8 0 -15 -7 -15 -15 0 -8 7 -15 15
-15 8 0 15 -7 15 -15 0 -8 7 -15 15 -15 8 0 15 -7 15 -15 0 -8 7 -15 15 -15 8
0 15 -7 15 -15 l0 -15 30 0 30 0 0 -15 c0 -8 7 -15 15 -15 8 0 15 -7 15 -15 0
-8 7 -15 15 -15 8 0 15 -7 15 -15 0 -8 7 -15 15 -15 8 0 15 -7 15 -15 l0 -15
30 0 30 0 0 -15 c0 -8 7 -15 15 -15 8 0 15 -7 15 -15 0 -8 7 -15 15 -15 8 0
15 -7 15 -15 l0 -15 30 0 30 0 0 -15 c0 -8 7 -15 15 -15 8 0 15 -7 15 -15 0
-8 7 -15 15 -15 8 0 15 -7 15 -15 l0 -15 30 0 30 0 0 -15 c0 -8 7 -15 15 -15
8 0 15 -7 15 -15 l0 -15 30 0 30 0 0 -15 c0 -8 7 -15 15 -15 8 0 15 -7 15 -15
0 -8 7 -15 15 -15 8 0 15 -7 15 -15 0 -8 7 -15 15 -15 l15 0 0 690 0 690 210
0 210 0 0 -855 0 -855 15 0 c8 0 15 -7 15 -15 l0 -15 30 0 30 0 0 -15 c0 -8 7
-15 15 -15 8 0 15 -7 15 -15 0 -8 7 -15 15 -15 8 0 15 -7 15 -15 l0 -15 30 0
30 0 0 -15 c0 -8 7 -15 15 -15 8 0 15 -7 15 -15 l0 -15 30 0 30 0 0 -15 c0 -8
7 -15 15 -15 8 0 15 -7 15 -15 0 -8 7 -15 15 -15 8 0 15 -7 15 -15 l0 -15 30
0 30 0 0 -15 c0 -8 7 -15 15 -15 8 0 15 -7 15 -15 0 -8 7 -15 15 -15 8 0 15
-7 15 -15 l0 -15 30 0 30 0 0 -15 c0 -8 7 -15 15 -15 8 0 15 -7 15 -15 0 -8 7
-15 15 -15 8 0 15 -7 15 -15 l0 -15 30 0 30 0 0 -15 c0 -8 7 -15 15 -15 8 0
15 -7 15 -15 l0 -15 30 0 30 0 0 -15 c0 -8 7 -15 15 -15 8 0 15 -7 15 -15 0
-8 7 -15 15 -15 8 0 15 -7 15 -15 l0 -15 30 0 30 0 0 -15 c0 -8 7 -15 15 -15
l15 0 0 1335 0 1335 210 0 210 0 0 -1665 0 -1665 15 0 15 0 0 -75 0 -75 15 0
15 0 0 -75 0 -75 15 0 15 0 0 -75 0 -75 15 0 15 0 0 -75 0 -75 15 0 15 0 0
-75 0 -75 15 0 15 0 0 -75 0 -75 15 0 15 0 0 -75 0 -75 15 0 15 0 0 -60 0 -60
15 0 15 0 0 -75 0 -75 15 0 15 0 0 -75 0 -75 15 0 15 0 0 -45 0 -45 -1725 0
-1725 0 0 735 0 735 15 0 15 0 0 30 0 30 15 0 c8 0 15 7 15 15 0 8 7 15 15 15
l15 0 0 30 0 30 15 0 c8 0 15 7 15 15 0 8 7 15 15 15 8 0 15 7 15 15 0 8 7 15
15 15 8 0 15 7 15 15 0 8 7 15 15 15 8 0 15 7 15 15 0 8 7 15 15 15 8 0 15 7
15 15 0 8 7 15 15 15 8 0 15 7 15 15 0 8 7 15 15 15 l15 0 0 30 0 30 15 0 c8
0 15 7 15 15 0 8 7 15 15 15 8 0 15 7 15 15 0 8 7 15 15 15 8 0 15 7 15 15 0
8 7 15 15 15 8 0 15 7 15 15 0 8 7 15 15 15 l15 0 0 30 0 30 15 0 c8 0 15 7
15 15 0 8 7 15 15 15 8 0 15 7 15 15 0 8 7 15 15 15 8 0 15 7 15 15 0 8 7 15
15 15 8 0 15 7 15 15 0 8 7 15 15 15 8 0 15 7 15 15 0 8 7 15 15 15 l15 0 0
30 0 30 15 0 c8 0 15 7 15 15 0 8 7 15 15 15 8 0 15 7 15 15 0 8 7 15 15 15 8
0 15 7 15 15 0 8 7 15 15 15 8 0 15 7 15 15 0 8 7 15 15 15 8 0 15 7 15 15 0
8 7 15 15 15 l15 0 0 30 0 30 15 0 c8 0 15 7 15 15 0 8 7 15 15 15 8 0 15 7
15 15 0 8 7 15 15 15 8 0 15 7 15 15 0 8 7 15 15 15 8 0 15 7 15 15 0 8 7 15
15 15 l15 0 0 30 0 30 15 0 c8 0 15 7 15 15 0 8 7 15 15 15 8 0 15 7 15 15 0
8 7 15 15 15 8 0 15 7 15 15 0 8 7 15 15 15 8 0 15 7 15 15 0 8 7 15 15 15 8
0 15 7 15 15 0 8 7 15 15 15 l15 0 0 45 0 45 -30 0 -30 0 0 15 c0 8 -7 15 -15
15 -8 0 -15 7 -15 15 0 8 -7 15 -15 15 -8 0 -15 7 -15 15 l0 15 -30 0 -30 0 0
15 c0 8 -7 15 -15 15 -8 0 -15 7 -15 15 0 8 -7 15 -15 15 -8 0 -15 7 -15 15
l0 15 -30 0 -30 0 0 15 c0 8 -7 15 -15 15 -8 0 -15 7 -15 15 0 8 -7 15 -15 15
-8 0 -15 7 -15 15 l0 15 -30 0 -30 0 0 15 c0 8 -7 15 -15 15 -8 0 -15 7 -15
15 0 8 -7 15 -15 15 -8 0 -15 7 -15 15 l0 15 -30 0 -30 0 0 15 c0 8 -7 15 -15
15 -8 0 -15 7 -15 15 0 8 -7 15 -15 15 -8 0 -15 7 -15 15 l0 15 -30 0 -30 0 0
15 0 15 -30 0 -30 0 0 -15 c0 -8 -7 -15 -15 -15 -8 0 -15 -7 -15 -15 0 -8 -7
-15 -15 -15 -8 0 -15 -7 -15 -15 0 -8 -7 -15 -15 -15 l-15 0 0 -30 0 -30 -15
0 c-8 0 -15 -7 -15 -15 0 -8 -7 -15 -15 -15 -8 0 -15 -7 -15 -15 0 -8 -7 -15
-15 -15 -8 0 -15 -7 -15 -15 0 -8 -7 -15 -15 -15 -8 0 -15 -7 -15 -15 0 -8 -7
-15 -15 -15 l-15 0 0 -30 0 -30 -15 0 c-8 0 -15 -7 -15 -15 0 -8 -7 -15 -15
-15 -8 0 -15 -7 -15 -15 0 -8 -7 -15 -15 -15 -8 0 -15 -7 -15 -15 0 -8 -7 -15
-15 -15 l-15 0 0 -30 0 -30 -15 0 c-8 0 -15 -7 -15 -15 0 -8 -7 -15 -15 -15
-8 0 -15 -7 -15 -15 0 -8 -7 -15 -15 -15 -8 0 -15 -7 -15 -15 0 -8 -7 -15 -15
-15 -8 0 -15 -7 -15 -15 0 -8 -7 -15 -15 -15 l-15 0 0 -30 0 -30 -15 0 c-8 0
-15 -7 -15 -15 0 -8 -7 -15 -15 -15 -8 0 -15 -7 -15 -15 0 -8 -7 -15 -15 -15
-8 0 -15 -7 -15 -15 0 -8 -7 -15 -15 -15 -8 0 -15 -7 -15 -15 0 -8 -7 -15 -15
-15 l-15 0 0 -30 0 -30 -15 0 c-8 0 -15 -7 -15 -15 0 -8 -7 -15 -15 -15 -8 0
-15 -7 -15 -15 0 -8 -7 -15 -15 -15 -8 0 -15 -7 -15 -15 0 -8 -7 -15 -15 -15
-8 0 -15 -7 -15 -15 0 -8 -7 -15 -15 -15 l-15 0 0 -30 0 -30 -15 0 c-8 0 -15
-7 -15 -15 0 -8 -7 -15 -15 -15 -8 0 -15 -7 -15 -15 0 -8 -7 -15 -15 -15 -8 0
-15 -7 -15 -15 0 -8 -7 -15 -15 -15 -8 0 -15 -7 -15 -15 0 -8 -7 -15 -15 -15
l-15 0 0 -30 0 -30 -15 0 c-8 0 -15 -7 -15 -15 0 -8 -7 -15 -15 -15 -8 0 -15
-7 -15 -15 0 -8 -7 -15 -15 -15 -8 0 -15 -7 -15 -15 0 -8 -7 -15 -15 -15 -8 0
-15 -7 -15 -15 0 -8 -7 -15 -15 -15 l-15 0 0 -30 0 -30 -15 0 c-8 0 -15 -7
-15 -15 0 -8 -7 -15 -15 -15 -8 0 -15 -7 -15 -15 0 -8 -7 -15 -15 -15 -8 0
-15 -7 -15 -15 0 -8 -7 -15 -15 -15 -8 0 -15 -7 -15 -15 0 -8 -7 -15 -15 -15
l-15 0 0 -30 0 -30 -15 0 c-8 0 -15 -7 -15 -15 0 -8 -7 -15 -15 -15 -8 0 -15
-7 -15 -15 0 -8 -7 -15 -15 -15 -8 0 -15 -7 -15 -15 0 -8 -7 -15 -15 -15 -8 0
-15 -7 -15 -15 0 -8 -7 -15 -15 -15 l-15 0 0 -30 0 -30 -15 0 c-8 0 -15 -7
-15 -15 0 -8 -7 -15 -15 -15 -8 0 -15 -7 -15 -15 0 -8 -7 -15 -15 -15 -8 0
-15 -7 -15 -15 0 -8 -7 -15 -15 -15 l-15 0 0 -75 0 -75 15 0 15 0 0 -60 0 -60
15 0 15 0 0 -75 0 -75 15 0 15 0 0 -60 0 -60 15 0 15 0 0 -60 0 -60 15 0 15 0
0 -60 0 -60 15 0 15 0 0 -75 0 -75 15 0 15 0 0 -60 0 -60 15 0 15 0 0 -60 0
-60 15 0 15 0 0 -60 0 -60 15 0 15 0 0 -60 0 -60 15 0 15 0 0 -60 0 -60 -390
0 -390 0 0 810 0 810 15 0 c8 0 15 7 15 15 0 8 7 15 15 15 8 0 15 7 15 15 0 8
7 15 15 15 8 0 15 7 15 15 0 8 7 15 15 15 l15 0 0 30 0 30 15 0 c8 0 15 7 15
15 0 8 7 15 15 15 8 0 15 7 15 15 0 8 7 15 15 15 8 0 15 7 15 15 0 8 7 15 15
15 8 0 15 7 15 15 0 8 7 15 15 15 8 0 15 7 15 15 0 8 7 15 15 15 l15 0 0 30 0
30 15 0 c8 0 15 7 15 15 0 8 7 15 15 15 8 0 15 7 15 15 0 8 7 15 15 15 8 0 15
7 15 15 0 8 7 15 15 15 8 0 15 7 15 15 0 8 7 15 15 15 l15 0 0 30 0 30 15 0
c8 0 15 7 15 15 0 8 7 15 15 15 8 0 15 7 15 15 0 8 7 15 15 15 8 0 15 7 15 15
0 8 7 15 15 15 8 0 15 7 15 15 0 8 7 15 15 15 l15 0 0 30 0 30 15 0 c8 0 15 7
15 15 0 8 7 15 15 15 8 0 15 7 15 15 0 8 7 15 15 15 8 0 15 7 15 15 0 8 7 15
15 15 8 0 15 7 15 15 0 8 7 15 15 15 l15 0 0 30 0 30 15 0 c8 0 15 7 15 15 0
8 7 15 15 15 8 0 15 7 15 15 0 8 7 15 15 15 8 0 15 7 15 15 0 8 7 15 15 15 8
0 15 7 15 15 0 8 7 15 15 15 l15 0 0 30 0 30 15 0 c8 0 15 7 15 15 0 8 7 15
15 15 8 0 15 7 15 15 0 8 7 15 15 15 8 0 15 7 15 15 0 8 7 15 15 15 8 0 15 7
15 15 0 8 7 15 15 15 l15 0 0 30 0 30 15 0 c8 0 15 7 15 15 0 8 7 15 15 15 8
0 15 7 15 15 0 8 7 15 15 15 8 0 15 7 15 15 0 8 7 15 15 15 8 0 15 7 15 15 0
8 7 15 15 15 l15 0 0 30 0 30 15 0 c8 0 15 7 15 15 0 8 7 15 15 15 8 0 15 7
15 15 0 8 7 15 15 15 8 0 15 7 15 15 0 8 7 15 15 15 8 0 15 7 15 15 0 8 7 15
15 15 l15 0 0 30 0 30 15 0 c8 0 15 7 15 15 0 8 7 15 15 15 8 0 15 7 15 15 0
8 7 15 15 15 8 0 15 7 15 15 0 8 7 15 15 15 8 0 15 7 15 15 0 8 7 15 15 15
l15 0 0 30 0 30 15 0 c8 0 15 7 15 15 0 8 7 15 15 15 8 0 15 7 15 15 0 8 7 15
15 15 8 0 15 7 15 15 0 8 7 15 15 15 8 0 15 7 15 15 0 8 7 15 15 15 l15 0 0
30 0 30 15 0 c8 0 15 7 15 15 0 8 7 15 15 15 8 0 15 7 15 15 0 8 7 15 15 15 8
0 15 7 15 15 0 8 7 15 15 15 8 0 15 7 15 15 0 8 7 15 15 15 l15 0 0 30 0 30
15 0 15 0 0 555 0 555 -15 0 c-8 0 -15 -7 -15 -15 0 -8 -7 -15 -15 -15 -8 0
-15 -7 -15 -15 0 -8 -7 -15 -15 -15 -8 0 -15 -7 -15 -15 l0 -15 -30 0 -30 0 0
-15 c0 -8 -7 -15 -15 -15 -8 0 -15 -7 -15 -15 0 -8 -7 -15 -15 -15 -8 0 -15
-7 -15 -15 l0 -15 -30 0 -30 0 0 -15 c0 -8 -7 -15 -15 -15 -8 0 -15 -7 -15
-15 0 -8 -7 -15 -15 -15 -8 0 -15 -7 -15 -15 l0 -15 -30 0 -30 0 0 -15 c0 -8
-7 -15 -15 -15 -8 0 -15 -7 -15 -15 0 -8 -7 -15 -15 -15 -8 0 -15 -7 -15 -15
0 -8 -7 -15 -15 -15 -8 0 -15 -7 -15 -15 l0 -15 -30 0 -30 0 0 -15 c0 -8 -7
-15 -15 -15 -8 0 -15 -7 -15 -15 0 -8 -7 -15 -15 -15 -8 0 -15 -7 -15 -15 l0
-15 -30 0 -30 0 0 -15 c0 -8 -7 -15 -15 -15 -8 0 -15 -7 -15 -15 0 -8 -7 -15
-15 -15 -8 0 -15 -7 -15 -15 0 -8 -7 -15 -15 -15 -8 0 -15 -7 -15 -15 l0 -15
-30 0 -30 0 0 -15 c0 -8 -7 -15 -15 -15 -8 0 -15 -7 -15 -15 0 -8 -7 -15 -15
-15 -8 0 -15 -7 -15 -15 l0 -15 -30 0 -30 0 0 -15 c0 -8 -7 -15 -15 -15 -8 0
-15 -7 -15 -15 0 -8 -7 -15 -15 -15 -8 0 -15 -7 -15 -15 0 -8 -7 -15 -15 -15
-8 0 -15 -7 -15 -15 l0 -15 -30 0 -30 0 0 -15 c0 -8 -7 -15 -15 -15 -8 0 -15
-7 -15 -15 0 -8 -7 -15 -15 -15 -8 0 -15 -7 -15 -15 l0 -15 -30 0 -30 0 0 -15
c0 -8 -7 -15 -15 -15 -8 0 -15 -7 -15 -15 0 -8 -7 -15 -15 -15 -8 0 -15 -7
-15 -15 0 -8 -7 -15 -15 -15 -8 0 -15 -7 -15 -15 l0 -15 -30 0 -30 0 0 -15 c0
-8 -7 -15 -15 -15 -8 0 -15 -7 -15 -15 0 -8 -7 -15 -15 -15 -8 0 -15 -7 -15
-15 l0 -15 -30 0 -30 0 0 -15 c0 -8 -7 -15 -15 -15 -8 0 -15 -7 -15 -15 0 -8
-7 -15 -15 -15 -8 0 -15 -7 -15 -15 l0 -15 -30 0 -30 0 0 -15 c0 -8 -7 -15
-15 -15 -8 0 -15 -7 -15 -15 0 -8 -7 -15 -15 -15 -8 0 -15 -7 -15 -15 0 -8 -7
-15 -15 -15 -8 0 -15 -7 -15 -15 l0 -15 -30 0 -30 0 0 -15 c0 -8 -7 -15 -15
-15 -8 0 -15 -7 -15 -15 0 -8 -7 -15 -15 -15 -8 0 -15 -7 -15 -15 0 -8 -7 -15
-15 -15 -8 0 -15 -7 -15 -15 l0 -15 -30 0 -30 0 0 -15 c0 -8 -7 -15 -15 -15
-8 0 -15 -7 -15 -15 0 -8 -7 -15 -15 -15 -8 0 -15 -7 -15 -15 l0 -15 -30 0
-30 0 0 -15 c0 -8 -7 -15 -15 -15 -8 0 -15 -7 -15 -15 0 -8 -7 -15 -15 -15 -8
0 -15 -7 -15 -15 l0 -15 -30 0 -30 0 0 -15 c0 -8 -7 -15 -15 -15 -8 0 -15 -7
-15 -15 0 -8 -7 -15 -15 -15 -8 0 -15 -7 -15 -15 l0 -15 -30 0 -30 0 0 -15 c0
-8 -7 -15 -15 -15 -8 0 -15 -7 -15 -15 0 -8 -7 -15 -15 -15 -8 0 -15 -7 -15
-15 0 -8 -7 -15 -15 -15 -8 0 -15 -7 -15 -15 l0 -15 -30 0 -30 0 0 -15 c0 -8
-7 -15 -15 -15 -8 0 -15 -7 -15 -15 0 -8 -7 -15 -15 -15 -8 0 -15 -7 -15 -15
l0 -15 -30 0 -30 0 0 -15 c0 -8 -7 -15 -15 -15 -8 0 -15 -7 -15 -15 0 -8 -7
-15 -15 -15 -8 0 -15 -7 -15 -15 0 -8 -7 -15 -15 -15 -8 0 -15 -7 -15 -15 l0
-15 -30 0 -30 0 0 -15 c0 -8 -7 -15 -15 -15 -8 0 -15 -7 -15 -15 0 -8 -7 -15
-15 -15 -8 0 -15 -7 -15 -15 0 -8 -7 -15 -15 -15 -8 0 -15 -7 -15 -15 l0 -15
-30 0 -30 0 0 -15 c0 -8 -7 -15 -15 -15 -8 0 -15 -7 -15 -15 0 -8 -7 -15 -15
-15 -8 0 -15 -7 -15 -15 l0 -15 -30 0 -30 0 0 -15 c0 -8 -7 -15 -15 -15 -8 0
-15 -7 -15 -15 0 -8 -7 -15 -15 -15 -8 0 -15 -7 -15 -15 l0 -15 -30 0 -30 0 0
-15 c0 -8 -7 -15 -15 -15 -8 0 -15 -7 -15 -15 0 -8 -7 -15 -15 -15 -8 0 -15
-7 -15 -15 0 -8 -7 -15 -15 -15 l-15 0 0 -30 0 -30 15 0 15 0 0 -75 0 -75 15
0 15 0 0 -75 0 -75 15 0 15 0 0 -75 0 -75 15 0 15 0 0 -75 0 -75 15 0 15 0 0
-75 0 -75 15 0 15 0 0 -75 0 -75 15 0 15 0 0 -75 0 -75 15 0 15 0 0 -75 0 -75
15 0 15 0 0 -75 0 -75 15 0 15 0 0 -75 0 -75 15 0 15 0 0 -75 0 -75 15 0 15 0
0 -75 0 -75 15 0 15 0 0 -75 0 -75 15 0 15 0 0 -75 0 -75 15 0 15 0 0 -75 0
-75 15 0 15 0 0 -75 0 -75 -645 0 -645 0 0 -210 0 -210 5355 0 5355 0 0 15 c0
8 7 15 15 15 8 0 15 7 15 15 0 8 -7 15 -15 15 l-15 0 0 180 0 180 -750 0 -750
0 0 15 c0 8 7 15 15 15 l15 0 0 60 0 60 15 0 15 0 0 60 0 60 15 0 15 0 0 75 0
75 15 0 15 0 0 60 0 60 15 0 15 0 0 75 0 75 15 0 15 0 0 60 0 60 15 0 15 0 0
60 0 60 15 0 15 0 0 75 0 75 15 0 15 0 0 60 0 60 15 0 15 0 0 75 0 75 15 0 15
0 0 60 0 60 15 0 15 0 0 60 0 60 15 0 15 0 0 75 0 75 15 0 15 0 0 60 0 60 15
0 15 0 0 60 0 60 15 0 15 0 0 75 0 75 15 0 15 0 0 60 0 60 15 0 15 0 0 60 0
60 15 0 15 0 0 75 0 75 15 0 15 0 0 60 0 60 15 0 15 0 0 75 0 75 15 0 15 0 0
60 0 60 15 0 15 0 0 60 0 60 15 0 15 0 0 75 0 75 15 0 15 0 0 60 0 60 15 0 15
0 0 60 0 60 15 0 15 0 0 60 0 60 15 0 15 0 0 60 0 60 15 0 15 0 0 60 0 60 -15
0 c-8 0 -15 -7 -15 -15 0 -8 -7 -15 -15 -15 -8 0 -15 -7 -15 -15 0 -8 -7 -15
-15 -15 -8 0 -15 -7 -15 -15 0 -8 -7 -15 -15 -15 -8 0 -15 -7 -15 -15 0 -8 -7
-15 -15 -15 -8 0 -15 -7 -15 -15 0 -8 -7 -15 -15 -15 l-15 0 0 -30 0 -30 -15
0 c-8 0 -15 -7 -15 -15 0 -8 -7 -15 -15 -15 -8 0 -15 -7 -15 -15 0 -8 -7 -15
-15 -15 -8 0 -15 -7 -15 -15 0 -8 -7 -15 -15 -15 -8 0 -15 -7 -15 -15 0 -8 -7
-15 -15 -15 -8 0 -15 -7 -15 -15 0 -8 -7 -15 -15 -15 -8 0 -15 -7 -15 -15 0
-8 -7 -15 -15 -15 -8 0 -15 -7 -15 -15 0 -8 -7 -15 -15 -15 -8 0 -15 -7 -15
-15 0 -8 -7 -15 -15 -15 -8 0 -15 -7 -15 -15 0 -8 -7 -15 -15 -15 -8 0 -15 -7
-15 -15 0 -8 -7 -15 -15 -15 -8 0 -15 -7 -15 -15 0 -8 -7 -15 -15 -15 -8 0
-15 -7 -15 -15 0 -8 -7 -15 -15 -15 -8 0 -15 -7 -15 -15 0 -8 -7 -15 -15 -15
-8 0 -15 -7 -15 -15 0 -8 -7 -15 -15 -15 l-15 0 0 -30 0 -30 -15 0 c-8 0 -15
-7 -15 -15 0 -8 -7 -15 -15 -15 -8 0 -15 -7 -15 -15 0 -8 -7 -15 -15 -15 -8 0
-15 -7 -15 -15 0 -8 -7 -15 -15 -15 -8 0 -15 -7 -15 -15 0 -8 -7 -15 -15 -15
-8 0 -15 -7 -15 -15 0 -8 -7 -15 -15 -15 -8 0 -15 -7 -15 -15 0 -8 -7 -15 -15
-15 -8 0 -15 -7 -15 -15 0 -8 -7 -15 -15 -15 -8 0 -15 -7 -15 -15 0 -8 -7 -15
-15 -15 -8 0 -15 -7 -15 -15 0 -8 -7 -15 -15 -15 -8 0 -15 -7 -15 -15 0 -8 -7
-15 -15 -15 -8 0 -15 -7 -15 -15 0 -8 -7 -15 -15 -15 -8 0 -15 -7 -15 -15 0
-8 -7 -15 -15 -15 -8 0 -15 -7 -15 -15 0 -8 -7 -15 -15 -15 -8 0 -15 -7 -15
-15 0 -8 -7 -15 -15 -15 -8 0 -15 -7 -15 -15 0 -8 -7 -15 -15 -15 l-15 0 0
-30 0 -30 -15 0 c-8 0 -15 -7 -15 -15 0 -8 -7 -15 -15 -15 -8 0 -15 -7 -15
-15 0 -8 -7 -15 -15 -15 -8 0 -15 -7 -15 -15 0 -8 -7 -15 -15 -15 -8 0 -15 -7
-15 -15 0 -8 -7 -15 -15 -15 -8 0 -15 -7 -15 -15 0 -8 -7 -15 -15 -15 -8 0
-15 -7 -15 -15 0 -8 -7 -15 -15 -15 -8 0 -15 -7 -15 -15 0 -8 -7 -15 -15 -15
-8 0 -15 -7 -15 -15 0 -8 -7 -15 -15 -15 -8 0 -15 -7 -15 -15 0 -8 -7 -15 -15
-15 -8 0 -15 -7 -15 -15 0 -8 -7 -15 -15 -15 -8 0 -15 -7 -15 -15 0 -8 -7 -15
-15 -15 -8 0 -15 -7 -15 -15 0 -8 -7 -15 -15 -15 -8 0 -15 -7 -15 -15 0 -8 -7
-15 -15 -15 -8 0 -15 -7 -15 -15 0 -8 -7 -15 -15 -15 -8 0 -15 -7 -15 -15 0
-8 -7 -15 -15 -15 -8 0 -15 -7 -15 -15 0 -8 -7 -15 -15 -15 l-15 0 0 -30 0
-30 -15 0 c-8 0 -15 -7 -15 -15 0 -8 -7 -15 -15 -15 -8 0 -15 -7 -15 -15 0 -8
-7 -15 -15 -15 l-15 0 0 -990 0 -990 -210 0 -210 0 0 3330 0 3330 -30 0 -30 0
0 15 c0 8 -7 15 -15 15 -8 0 -15 7 -15 15 l0 15 -30 0 -30 0 0 15 c0 8 -7 15
-15 15 -8 0 -15 7 -15 15 l0 15 -30 0 -30 0 0 15 c0 8 -7 15 -15 15 -8 0 -15
7 -15 15 0 8 -7 15 -15 15 -8 0 -15 7 -15 15 l0 15 -30 0 -30 0 0 15 c0 8 -7
15 -15 15 -8 0 -15 7 -15 15 l0 15 -30 0 -30 0 0 15 c0 8 -7 15 -15 15 -8 0
-15 7 -15 15 l0 15 -30 0 -30 0 0 15 c0 8 -7 15 -15 15 -8 0 -15 7 -15 15 l0
15 -30 0 -30 0 0 15 c0 8 -7 15 -15 15 -8 0 -15 7 -15 15 l0 15 -30 0 -30 0 0
15 c0 8 -7 15 -15 15 -8 0 -15 7 -15 15 l0 15 -30 0 -30 0 0 15 c0 8 -7 15
-15 15 -8 0 -15 7 -15 15 l0 15 -30 0 -30 0 0 15 0 15 -30 0 -30 0 0 -15z
m270 -780 c0 -8 7 -15 15 -15 8 0 15 7 15 15 0 8 7 15 15 15 8 0 15 -7 15 -15
l0 -15 75 0 75 0 0 -960 0 -960 -15 0 c-8 0 -15 -7 -15 -15 l0 -15 -195 0
-195 0 0 975 0 975 15 0 c8 0 15 7 15 15 l0 15 90 0 90 0 0 -15z m-1110 -1650
l0 -675 -15 0 c-8 0 -15 -7 -15 -15 l0 -15 -135 0 -135 0 0 15 0 15 -30 0 -30
0 0 -15 c0 -8 -7 -15 -15 -15 -8 0 -15 7 -15 15 0 8 -7 15 -15 15 l-15 0 0
675 0 675 210 0 210 0 0 -675z"/>
<path d="M8970 5460 l0 -1890 15 0 c8 0 15 7 15 15 0 8 7 15 15 15 8 0 15 7
15 15 0 8 7 15 15 15 8 0 15 7 15 15 0 8 7 15 15 15 8 0 15 7 15 15 0 8 7 15
15 15 8 0 15 7 15 15 0 8 7 15 15 15 8 0 15 7 15 15 0 8 7 15 15 15 8 0 15 7
15 15 0 8 7 15 15 15 8 0 15 7 15 15 0 8 7 15 15 15 8 0 15 7 15 15 0 8 7 15
15 15 8 0 15 7 15 15 0 8 7 15 15 15 8 0 15 7 15 15 0 8 7 15 15 15 l15 0 0
30 0 30 15 0 c8 0 15 7 15 15 0 8 7 15 15 15 8 0 15 7 15 15 0 8 7 15 15 15 8
0 15 7 15 15 0 8 7 15 15 15 8 0 15 7 15 15 0 8 7 15 15 15 8 0 15 7 15 15 0
8 7 15 15 15 8 0 15 7 15 15 0 8 7 15 15 15 8 0 15 7 15 15 0 8 7 15 15 15 8
0 15 7 15 15 0 8 7 15 15 15 8 0 15 7 15 15 0 8 7 15 15 15 8 0 15 7 15 15 0
8 7 15 15 15 8 0 15 7 15 15 0 8 7 15 15 15 8 0 15 7 15 15 0 8 7 15 15 15 8
0 15 7 15 15 0 8 7 15 15 15 l15 0 0 30 0 30 15 0 c8 0 15 7 15 15 0 8 7 15
15 15 8 0 15 7 15 15 0 8 7 15 15 15 8 0 15 7 15 15 0 8 7 15 15 15 8 0 15 7
15 15 0 8 7 15 15 15 8 0 15 7 15 15 0 8 7 15 15 15 8 0 15 7 15 15 0 8 7 15
15 15 8 0 15 7 15 15 0 8 7 15 15 15 8 0 15 7 15 15 0 8 7 15 15 15 8 0 15 7
15 15 0 8 7 15 15 15 8 0 15 7 15 15 0 8 7 15 15 15 8 0 15 7 15 15 0 8 7 15
15 15 8 0 15 7 15 15 0 8 7 15 15 15 8 0 15 7 15 15 0 8 7 15 15 15 8 0 15 7
15 15 0 8 7 15 15 15 8 0 15 7 15 15 0 8 7 15 15 15 l15 0 0 30 0 30 15 0 c8
0 15 7 15 15 0 8 7 15 15 15 8 0 15 7 15 15 0 8 7 15 15 15 8 0 15 7 15 15 0
8 7 15 15 15 8 0 15 7 15 15 0 8 7 15 15 15 8 0 15 7 15 15 0 8 7 15 15 15 8
0 15 7 15 15 0 8 7 15 15 15 8 0 15 7 15 15 0 8 7 15 15 15 8 0 15 7 15 15 0
8 7 15 15 15 8 0 15 7 15 15 0 8 7 15 15 15 8 0 15 7 15 15 0 8 7 15 15 15 8
0 15 7 15 15 0 8 7 15 15 15 8 0 15 7 15 15 0 8 7 15 15 15 8 0 15 7 15 15 0
8 7 15 15 15 l15 0 0 30 0 30 15 0 c8 0 15 7 15 15 0 8 7 15 15 15 8 0 15 7
15 15 0 8 7 15 15 15 8 0 15 7 15 15 0 8 7 15 15 15 8 0 15 7 15 15 0 8 7 15
15 15 8 0 15 7 15 15 0 8 7 15 15 15 8 0 15 7 15 15 0 8 7 15 15 15 8 0 15 7
15 15 0 8 7 15 15 15 8 0 15 7 15 15 0 8 7 15 15 15 8 0 15 7 15 15 0 8 7 15
15 15 8 0 15 7 15 15 0 8 7 15 15 15 8 0 15 7 15 15 0 8 7 15 15 15 8 0 15 7
15 15 0 8 7 15 15 15 8 0 15 7 15 15 0 8 7 15 15 15 l15 0 0 30 0 30 15 0 c8
0 15 7 15 15 0 8 7 15 15 15 l15 0 0 30 0 30 -30 0 -30 0 0 15 c0 8 -7 15 -15
15 -8 0 -15 7 -15 15 l0 15 -30 0 -30 0 0 15 c0 8 -7 15 -15 15 -8 0 -15 7
-15 15 l0 15 -30 0 -30 0 0 15 c0 8 -7 15 -15 15 -8 0 -15 7 -15 15 0 8 -7 15
-15 15 -8 0 -15 7 -15 15 l0 15 -30 0 -30 0 0 15 c0 8 -7 15 -15 15 -8 0 -15
7 -15 15 l0 15 -30 0 -30 0 0 15 c0 8 -7 15 -15 15 -8 0 -15 7 -15 15 l0 15
-30 0 -30 0 0 15 c0 8 -7 15 -15 15 -8 0 -15 7 -15 15 l0 15 -30 0 -30 0 0 15
c0 8 -7 15 -15 15 -8 0 -15 7 -15 15 l0 15 -30 0 -30 0 0 15 c0 8 -7 15 -15
15 -8 0 -15 7 -15 15 l0 15 -30 0 -30 0 0 15 c0 8 -7 15 -15 15 -8 0 -15 7
-15 15 l0 15 -30 0 -30 0 0 15 c0 8 -7 15 -15 15 -8 0 -15 7 -15 15 l0 15 -30
0 -30 0 0 15 c0 8 -7 15 -15 15 -8 0 -15 7 -15 15 l0 15 -30 0 -30 0 0 15 c0
8 -7 15 -15 15 -8 0 -15 7 -15 15 l0 15 -30 0 -30 0 0 15 c0 8 -7 15 -15 15
-8 0 -15 7 -15 15 l0 15 -30 0 -30 0 0 15 c0 8 -7 15 -15 15 -8 0 -15 7 -15
15 l0 15 -30 0 -30 0 0 15 c0 8 -7 15 -15 15 -8 0 -15 7 -15 15 l0 15 -30 0
-30 0 0 15 c0 8 -7 15 -15 15 -8 0 -15 7 -15 15 0 8 -7 15 -15 15 -8 0 -15 7
-15 15 l0 15 -30 0 -30 0 0 15 c0 8 -7 15 -15 15 -8 0 -15 7 -15 15 l0 15 -30
0 -30 0 0 15 c0 8 -7 15 -15 15 -8 0 -15 7 -15 15 l0 15 -30 0 -30 0 0 15 c0
8 -7 15 -15 15 -8 0 -15 7 -15 15 l0 15 -30 0 -30 0 0 15 c0 8 -7 15 -15 15
-8 0 -15 7 -15 15 l0 15 -30 0 -30 0 0 15 c0 8 -7 15 -15 15 -8 0 -15 7 -15
15 l0 15 -30 0 -30 0 0 15 c0 8 -7 15 -15 15 -8 0 -15 7 -15 15 l0 15 -30 0
-30 0 0 15 c0 8 -7 15 -15 15 -8 0 -15 7 -15 15 0 8 -7 15 -15 15 l-15 0 0
-1890z"/>
</g>
  </g></g></g>
<g transform="translate(80.0,487.0) scale(0.87500)"><path d="M160 0V1440H432V254H1052V0Z" fill="#FAFAFA" transform="translate(0.00,220.00) scale(0.10000,-0.10000)"/>
<path d="M160 0V1470H432V0Z" fill="#FAFAFA" transform="translate(106.20,220.00) scale(0.10000,-0.10000)"/>
<path d="M440 -30Q324 -30 243.5 14.5Q163 59 121.5 133.5Q80 208 80 298Q80 373 103.0 435.0Q126 497 177.5 544.5Q229 592 316 624Q376 646 459.0 663.0Q542 680 647.0 695.5Q752 711 878 730L780 676Q780 772 734.0 817.0Q688 862 580 862Q520 862 455.0 833.0Q390 804 364 730L118 808Q159 942 272.0 1026.0Q385 1110 580 1110Q723 1110 834.0 1066.0Q945 1022 1002 914Q1034 854 1040.0 794.0Q1046 734 1046 660V0H808V222L842 176Q763 67 671.5 18.5Q580 -30 440 -30ZM498 184Q573 184 624.5 210.5Q676 237 706.5 271.0Q737 305 748 328Q769 372 772.5 430.5Q776 489 776 528L856 508Q735 488 660.0 474.5Q585 461 539.0 450.0Q493 439 458 426Q418 410 393.5 391.5Q369 373 357.5 351.0Q346 329 346 302Q346 265 364.5 238.5Q383 212 417.0 198.0Q451 184 498 184Z" fill="#FAFAFA" transform="translate(163.40,220.00) scale(0.10000,-0.10000)"/>
<path d="M1440 0V638Q1440 745 1389.5 804.5Q1339 864 1250 864Q1193 864 1151.0 837.5Q1109 811 1085.5 763.5Q1062 716 1062 654L948 730Q948 841 1000.5 926.0Q1053 1011 1141.5 1058.5Q1230 1106 1338 1106Q1523 1106 1617.5 996.5Q1712 887 1712 710V0ZM138 0V1080H378V722H412V0ZM790 0V638Q790 745 739.5 804.5Q689 864 600 864Q515 864 463.5 805.5Q412 747 412 654L298 734Q298 840 351.0 924.0Q404 1008 493.5 1057.0Q583 1106 694 1106Q821 1106 902.5 1052.0Q984 998 1023.0 908.0Q1062 818 1062 710V0Z" fill="#FAFAFA" transform="translate(278.00,220.00) scale(0.10000,-0.10000)"/>
<path d="M440 -30Q324 -30 243.5 14.5Q163 59 121.5 133.5Q80 208 80 298Q80 373 103.0 435.0Q126 497 177.5 544.5Q229 592 316 624Q376 646 459.0 663.0Q542 680 647.0 695.5Q752 711 878 730L780 676Q780 772 734.0 817.0Q688 862 580 862Q520 862 455.0 833.0Q390 804 364 730L118 808Q159 942 272.0 1026.0Q385 1110 580 1110Q723 1110 834.0 1066.0Q945 1022 1002 914Q1034 854 1040.0 794.0Q1046 734 1046 660V0H808V222L842 176Q763 67 671.5 18.5Q580 -30 440 -30ZM498 184Q573 184 624.5 210.5Q676 237 706.5 271.0Q737 305 748 328Q769 372 772.5 430.5Q776 489 776 528L856 508Q735 488 660.0 474.5Q585 461 539.0 450.0Q493 439 458 426Q418 410 393.5 391.5Q369 373 357.5 351.0Q346 329 346 302Q346 265 364.5 238.5Q383 212 417.0 198.0Q451 184 498 184Z" fill="#FAFAFA" transform="translate(459.20,220.00) scale(0.10000,-0.10000)"/>
<path d="M230 0V1076Q230 1117 232.0 1169.0Q234 1221 248.5 1274.0Q263 1327 302 1370Q352 1426 410.5 1446.5Q469 1467 524.0 1468.5Q579 1470 618 1470H752V1250H628Q564 1250 533.0 1217.5Q502 1185 502 1140V0ZM60 870V1080H752V870Z" fill="#FAFAFA" transform="translate(573.80,220.00) scale(0.10000,-0.10000)"/>
<path d="M626 -30Q463 -30 340.0 43.0Q217 116 148.5 244.5Q80 373 80 540Q80 709 150.0 837.5Q220 966 343.0 1038.0Q466 1110 626 1110Q789 1110 912.5 1037.0Q1036 964 1105.0 835.5Q1174 707 1174 540Q1174 372 1104.5 243.5Q1035 115 911.5 42.5Q788 -30 626 -30ZM626 224Q757 224 821.5 312.5Q886 401 886 540Q886 684 820.5 770.0Q755 856 626 856Q537 856 480.0 816.0Q423 776 395.5 705.0Q368 634 368 540Q368 395 433.5 309.5Q499 224 626 224Z" fill="#FAFAFA" transform="translate(649.00,220.00) scale(0.10000,-0.10000)"/>
<path d="M160 0V1470H432V0Z" fill="#FAFAFA" transform="translate(772.40,220.00) scale(0.10000,-0.10000)"/>
<path d="M160 1230V1470H432V1230ZM160 0V1080H432V0Z" fill="#FAFAFA" transform="translate(829.60,220.00) scale(0.10000,-0.10000)"/>
<path d="M626 -30Q463 -30 340.0 43.0Q217 116 148.5 244.5Q80 373 80 540Q80 709 150.0 837.5Q220 966 343.0 1038.0Q466 1110 626 1110Q789 1110 912.5 1037.0Q1036 964 1105.0 835.5Q1174 707 1174 540Q1174 372 1104.5 243.5Q1035 115 911.5 42.5Q788 -30 626 -30ZM626 224Q757 224 821.5 312.5Q886 401 886 540Q886 684 820.5 770.0Q755 856 626 856Q537 856 480.0 816.0Q423 776 395.5 705.0Q368 634 368 540Q368 395 433.5 309.5Q499 224 626 224Z" fill="#FAFAFA" transform="translate(886.80,220.00) scale(0.10000,-0.10000)"/></g>
</svg>